<svg width="134" height="188" viewBox="0 0 134 188" fill="none" xmlns="http://www.w3.org/2000/svg">
<mask id="path-1-inside-1_13_679" fill="white">
<path d="M116.083 182.959H35.6063L11.2888 158.642V142.95L6.2418 137.903V89.2682L11.9312 83.5788V61.6472L0.368896 50.0849V17.4169H0.460661L16.9782 2.55115H47.9944L55.5191 10.0758H96.3541L124.342 38.0638V56.9672L130.857 63.4825V92.3882L122.782 100.463V156.439L128.104 161.762V171.03L116.083 183.051V182.959ZM35.9734 182.042H115.716L127.279 170.479V161.945L121.956 156.623V99.9128L130.032 91.8376V63.666L123.516 57.1508V38.2474L96.0788 10.7181H55.0603L47.5356 3.1935H17.2535L1.19477 17.784V49.8096L12.757 61.3719V84.0376L7.06767 89.727V137.536L12.1147 142.583V158.275L35.9734 182.133V182.042Z"/>
</mask>
<path d="M116.083 182.959H35.6063L11.2888 158.642V142.95L6.2418 137.903V89.2682L11.9312 83.5788V61.6472L0.368896 50.0849V17.4169H0.460661L16.9782 2.55115H47.9944L55.5191 10.0758H96.3541L124.342 38.0638V56.9672L130.857 63.4825V92.3882L122.782 100.463V156.439L128.104 161.762V171.03L116.083 183.051V182.959ZM35.9734 182.042H115.716L127.279 170.479V161.945L121.956 156.623V99.9128L130.032 91.8376V63.666L123.516 57.1508V38.2474L96.0788 10.7181H55.0603L47.5356 3.1935H17.2535L1.19477 17.784V49.8096L12.757 61.3719V84.0376L7.06767 89.727V137.536L12.1147 142.583V158.275L35.9734 182.133V182.042Z" fill="#3CCEA2" fill-opacity="0.35"/>
<path d="M116.083 182.959H117.083V181.959H116.083V182.959ZM35.6063 182.959L34.8992 183.666L35.1921 183.959H35.6063V182.959ZM11.2888 158.642H10.2888V159.056L10.5817 159.349L11.2888 158.642ZM11.2888 142.95H12.2888V142.536L11.9959 142.243L11.2888 142.95ZM6.2418 137.903H5.2418V138.317L5.53469 138.61L6.2418 137.903ZM6.2418 89.2682L5.53469 88.5611L5.2418 88.854V89.2682H6.2418ZM11.9312 83.5788L12.6383 84.2859L12.9312 83.993V83.5788H11.9312ZM11.9312 61.6472H12.9312V61.233L12.6383 60.9401L11.9312 61.6472ZM0.368896 50.0849H-0.631104V50.4991L-0.33821 50.792L0.368896 50.0849ZM0.368896 17.4169V16.4169H-0.631104V17.4169H0.368896ZM0.460661 17.4169V18.4169H0.844397L1.12963 18.1602L0.460661 17.4169ZM16.9782 2.55115V1.55115H16.5945L16.3092 1.80785L16.9782 2.55115ZM47.9944 2.55115L48.7015 1.84404L48.4087 1.55115H47.9944V2.55115ZM55.5191 10.0758L54.812 10.7829L55.1049 11.0758H55.5191V10.0758ZM96.3541 10.0758L97.0612 9.36869L96.7683 9.0758H96.3541V10.0758ZM124.342 38.0638H125.342V37.6496L125.049 37.3567L124.342 38.0638ZM124.342 56.9672H123.342V57.3815L123.635 57.6743L124.342 56.9672ZM130.857 63.4825H131.857V63.0683L131.564 62.7754L130.857 63.4825ZM130.857 92.3882L131.564 93.0953L131.857 92.8024V92.3882H130.857ZM122.782 100.463L122.075 99.7563L121.782 100.049V100.463H122.782ZM122.782 156.439H121.782V156.854L122.075 157.147L122.782 156.439ZM128.104 161.762H129.104V161.348L128.812 161.055L128.104 161.762ZM128.104 171.03L128.812 171.737L129.104 171.444V171.03H128.104ZM116.083 183.051H115.083V185.465L116.79 183.758L116.083 183.051ZM35.9734 182.042V181.042H34.9734V182.042H35.9734ZM115.716 182.042V183.042H116.131L116.423 182.749L115.716 182.042ZM127.279 170.479L127.986 171.186L128.279 170.894V170.479H127.279ZM127.279 161.945H128.279V161.531L127.986 161.238L127.279 161.945ZM121.956 156.623H120.956V157.037L121.249 157.33L121.956 156.623ZM121.956 99.9128L121.249 99.2057L120.956 99.4986V99.9128H121.956ZM130.032 91.8376L130.739 92.5447L131.032 92.2518V91.8376H130.032ZM130.032 63.666H131.032V63.2518L130.739 62.9589L130.032 63.666ZM123.516 57.1508H122.516V57.565L122.809 57.8579L123.516 57.1508ZM123.516 38.2474H124.516V37.8341L124.225 37.5414L123.516 38.2474ZM96.0788 10.7181L96.7871 10.0122L96.494 9.71815H96.0788V10.7181ZM55.0603 10.7181L54.3532 11.4253L54.6461 11.7181H55.0603V10.7181ZM47.5356 3.1935L48.2427 2.48639L47.9498 2.1935H47.5356V3.1935ZM17.2535 3.1935V2.1935H16.867L16.581 2.45336L17.2535 3.1935ZM1.19477 17.784L0.522311 17.0439L0.194773 17.3414V17.784H1.19477ZM1.19477 49.8096H0.194773V50.2239L0.487666 50.5168L1.19477 49.8096ZM12.757 61.3719H13.757V60.9577L13.4642 60.6648L12.757 61.3719ZM12.757 84.0376L13.4642 84.7448L13.757 84.4519V84.0376H12.757ZM7.06767 89.727L6.36057 89.0199L6.06767 89.3128V89.727H7.06767ZM7.06767 137.536H6.06767V137.95L6.36057 138.243L7.06767 137.536ZM12.1147 142.583H13.1147V142.169L12.8218 141.876L12.1147 142.583ZM12.1147 158.275H11.1147V158.689L11.4076 158.982L12.1147 158.275ZM35.9734 182.133L35.2663 182.841L36.9734 184.548V182.133H35.9734ZM116.083 181.959H35.6063V183.959H116.083V181.959ZM36.3134 182.252L11.9959 157.935L10.5817 159.349L34.8992 183.666L36.3134 182.252ZM12.2888 158.642V142.95H10.2888V158.642H12.2888ZM11.9959 142.243L6.9489 137.196L5.53469 138.61L10.5817 143.657L11.9959 142.243ZM7.2418 137.903V89.2682H5.2418V137.903H7.2418ZM6.9489 89.9753L12.6383 84.2859L11.2241 82.8717L5.53469 88.5611L6.9489 89.9753ZM12.9312 83.5788V61.6472H10.9312V83.5788H12.9312ZM12.6383 60.9401L1.076 49.3778L-0.33821 50.792L11.2241 62.3543L12.6383 60.9401ZM1.3689 50.0849V17.4169H-0.631104V50.0849H1.3689ZM0.368896 18.4169H0.460661V16.4169H0.368896V18.4169ZM1.12963 18.1602L17.6472 3.29444L16.3092 1.80785L-0.208304 16.6736L1.12963 18.1602ZM16.9782 3.55115H47.9944V1.55115H16.9782V3.55115ZM47.2873 3.25825L54.812 10.7829L56.2262 9.36869L48.7015 1.84404L47.2873 3.25825ZM55.5191 11.0758H96.3541V9.0758H55.5191V11.0758ZM95.647 10.7829L123.635 38.7709L125.049 37.3567L97.0612 9.36869L95.647 10.7829ZM123.342 38.0638V56.9672H125.342V38.0638H123.342ZM123.635 57.6743L130.15 64.1896L131.564 62.7754L125.049 56.2601L123.635 57.6743ZM129.857 63.4825V92.3882H131.857V63.4825H129.857ZM130.15 91.6811L122.075 99.7563L123.489 101.171L131.564 93.0953L130.15 91.6811ZM121.782 100.463V156.439H123.782V100.463H121.782ZM122.075 157.147L127.397 162.469L128.812 161.055L123.489 155.732L122.075 157.147ZM127.104 161.762V171.03H129.104V161.762H127.104ZM127.397 170.323L115.376 182.344L116.79 183.758L128.812 171.737L127.397 170.323ZM117.083 183.051V182.959H115.083V183.051H117.083ZM35.9734 183.042H115.716V181.042H35.9734V183.042ZM116.423 182.749L127.986 171.186L126.571 169.772L115.009 181.335L116.423 182.749ZM128.279 170.479V161.945H126.279V170.479H128.279ZM127.986 161.238L122.663 155.916L121.249 157.33L126.571 162.652L127.986 161.238ZM122.956 156.623V99.9128H120.956V156.623H122.956ZM122.663 100.62L130.739 92.5447L129.324 91.1305L121.249 99.2057L122.663 100.62ZM131.032 91.8376V63.666H129.032V91.8376H131.032ZM130.739 62.9589L124.223 56.4437L122.809 57.8579L129.324 64.3731L130.739 62.9589ZM124.516 57.1508V38.2474H122.516V57.1508H124.516ZM124.225 37.5414L96.7871 10.0122L95.3705 11.4241L122.808 38.9533L124.225 37.5414ZM96.0788 9.71815H55.0603V11.7181H96.0788V9.71815ZM55.7674 10.011L48.2427 2.48639L46.8285 3.9006L54.3532 11.4253L55.7674 10.011ZM47.5356 2.1935H17.2535V4.1935H47.5356V2.1935ZM16.581 2.45336L0.522311 17.0439L1.86724 18.5241L17.9259 3.93363L16.581 2.45336ZM0.194773 17.784V49.8096H2.19477V17.784H0.194773ZM0.487666 50.5168L12.0499 62.079L13.4642 60.6648L1.90188 49.1025L0.487666 50.5168ZM11.757 61.3719V84.0376H13.757V61.3719H11.757ZM12.0499 83.3305L6.36057 89.0199L7.77478 90.4341L13.4642 84.7448L12.0499 83.3305ZM6.06767 89.727V137.536H8.06767V89.727H6.06767ZM6.36057 138.243L11.4076 143.29L12.8218 141.876L7.77478 136.829L6.36057 138.243ZM11.1147 142.583V158.275H13.1147V142.583H11.1147ZM11.4076 158.982L35.2663 182.841L36.6805 181.426L12.8218 157.568L11.4076 158.982ZM36.9734 182.133V182.042H34.9734V182.133H36.9734Z" fill="#0F7EB7" mask="url(#path-1-inside-1_13_679)"/>
<path opacity="0.2" d="M120.08 157.266V157.473L120.226 157.619L125.402 162.795V169.814L114.958 180.257H36.7302L13.8992 157.517V142.033V141.826L13.7527 141.679L8.85215 136.779V90.4849L14.3951 84.942L14.5415 84.7955V84.5884V60.8215V60.6144L14.3951 60.468L2.97925 49.0521V18.6505L17.9945 5.25366H46.7777L54.1559 12.6319L54.3024 12.7783H54.5095H95.1374L121.548 39.1888V57.8851V58.0942L121.697 58.2411L128.155 64.6095V91.2619L120.228 99.0986L120.08 99.2454V99.4542V157.266Z" fill="#3CCEA2" fill-opacity="0.35" stroke="#0F7EB7"/>
<path d="M9.03615 63.2073V63.0002L8.8897 62.8537L1.35319 55.3172C1.35066 55.3094 1.34804 55.3012 1.34535 55.2926C1.32117 55.2152 1.29334 55.1123 1.27528 55.004C1.25668 54.8924 1.25202 54.7957 1.26101 54.7238C1.26635 54.6811 1.27449 54.6616 1.27749 54.6556C1.44888 54.4879 1.68048 54.4893 1.85087 54.6597L9.87143 62.6803V78.0731C9.87143 78.2888 9.69629 78.4907 9.45379 78.4907C9.23806 78.4907 9.03615 78.3156 9.03615 78.0731V63.2073Z" fill="#3CCEA2" fill-opacity="0.35" stroke="#0F7EB7"/>
<path d="M127.292 103.505L127.146 103.651V103.858V112.117C127.146 112.333 126.97 112.535 126.728 112.535C126.512 112.535 126.31 112.36 126.31 112.117V103.331L132.599 97.0425C132.607 97.04 132.615 97.0374 132.624 97.0347C132.701 97.0105 132.804 96.9827 132.912 96.9646C133.024 96.946 133.121 96.9414 133.193 96.9503C133.235 96.9557 133.255 96.9638 133.261 96.9668C133.428 97.1382 133.427 97.3698 133.257 97.5402L127.292 103.505Z" fill="#3CCEA2" fill-opacity="0.35" stroke="#0F7EB7"/>
<path d="M126.728 135.201C126.512 135.201 126.31 135.025 126.31 134.783V124.781C126.31 124.565 126.485 124.363 126.728 124.363C126.89 124.363 126.985 124.415 127.04 124.469C127.094 124.523 127.146 124.619 127.146 124.781V134.783C127.146 134.999 126.97 135.201 126.728 135.201Z" fill="#3CCEA2" fill-opacity="0.35" stroke="#0F7EB7"/>
<path d="M34.5186 185.973L34.6651 186.12H34.8722H91.5824C91.7981 186.12 92 186.295 92 186.537C92 186.699 91.9483 186.795 91.8941 186.849C91.8399 186.903 91.744 186.955 91.5824 186.955H34.3452L25.8539 178.464C25.8514 178.456 25.8488 178.448 25.8461 178.439C25.8219 178.362 25.7941 178.259 25.776 178.151C25.7574 178.039 25.7528 177.942 25.7617 177.87C25.7671 177.828 25.7752 177.808 25.7782 177.802C25.9496 177.635 26.1812 177.636 26.3516 177.806L34.5186 185.973ZM25.8851 178.553C25.8852 178.553 25.8852 178.553 25.8851 178.553L25.8851 178.553Z" fill="#3CCEA2" fill-opacity="0.35" stroke="#0F7EB7"/>
<path d="M90.3897 8.19942H62.8605C62.6448 8.19942 62.4429 8.02428 62.4429 7.78178C62.4429 7.62011 62.4946 7.52424 62.5488 7.47004C62.603 7.41584 62.6988 7.36414 62.8605 7.36414H90.3897C90.6055 7.36414 90.8074 7.53927 90.8074 7.78178C90.8074 7.94344 90.7557 8.03931 90.7015 8.09351C90.6473 8.14771 90.5514 8.19942 90.3897 8.19942Z" fill="#3CCEA2" fill-opacity="0.35" stroke="#0F7EB7"/>
<path d="M17.0696 2.41801H16.8778L16.7351 2.54636L4.72266 13.3576V11.9534L16.6159 1.49097H30.8174L31.7886 2.41801H17.0696Z" fill="#3CCEA2" fill-opacity="0.35" stroke="#0F7EB7"/>
<path d="M124.384 56.9517V42.7738L128.431 46.8944V61.2194L124.384 56.9517Z" fill="#3CCEA2" fill-opacity="0.35" stroke="#0F7EB7"/>
<path d="M4.35596 127.785V100.028L6.11215 98.2716L6.19735 129.627L4.35596 127.785Z" fill="#3CCEA2" fill-opacity="0.35" stroke="#0F7EB7"/>
<path d="M56.7428 181.911L60.0359 178.688H119.079L115.696 182.001L56.7428 181.911Z" fill="#3CCEA2" fill-opacity="0.35" stroke="#0F7EB7"/>
<path d="M54.8883 10.8854L55.0351 11.034H55.244H95.8763L97.8733 12.9704H52.6064L42.9807 3.34473L47.5073 3.41437L54.8883 10.8854Z" fill="#3CCEA2" fill-opacity="0.35" stroke="#0F7EB7"/>
<mask id="path-14-inside-2_13_679" fill="white">
<path d="M9.36142 26.96H0.735596V26.5012H9.17789L28.0813 7.59778H44.0482V8.0566H28.2648L9.36142 26.96Z"/>
</mask>
<path d="M9.36142 26.96H0.735596V26.5012H9.17789L28.0813 7.59778H44.0482V8.0566H28.2648L9.36142 26.96Z" fill="#3CCEA2" fill-opacity="0.35"/>
<path d="M9.36142 26.96V27.96H9.77563L10.0685 27.6671L9.36142 26.96ZM0.735596 26.96H-0.264404V27.96H0.735596V26.96ZM0.735596 26.5012V25.5012H-0.264404V26.5012H0.735596ZM9.17789 26.5012V27.5012H9.5921L9.885 27.2083L9.17789 26.5012ZM28.0813 7.59778V6.59778H27.6671L27.3742 6.89067L28.0813 7.59778ZM44.0482 7.59778H45.0482V6.59778H44.0482V7.59778ZM44.0482 8.0566V9.0566H45.0482V8.0566H44.0482ZM28.2648 8.0566V7.0566H27.8506L27.5577 7.34949L28.2648 8.0566ZM9.36142 25.96H0.735596V27.96H9.36142V25.96ZM1.7356 26.96V26.5012H-0.264404V26.96H1.7356ZM0.735596 27.5012H9.17789V25.5012H0.735596V27.5012ZM9.885 27.2083L28.7884 8.30489L27.3742 6.89067L8.47078 25.7941L9.885 27.2083ZM28.0813 8.59778H44.0482V6.59778H28.0813V8.59778ZM43.0482 7.59778V8.0566H45.0482V7.59778H43.0482ZM44.0482 7.0566H28.2648V9.0566H44.0482V7.0566ZM27.5577 7.34949L8.65431 26.2529L10.0685 27.6671L28.9719 8.76371L27.5577 7.34949Z" fill="#0F7EB7" mask="url(#path-14-inside-2_13_679)"/>
<mask id="path-16-inside-3_13_679" fill="white">
<path d="M10.7384 59.9955L10.3714 59.6284L17.3454 52.7461V35.0356L9.08667 26.8686L9.45373 26.5016L17.8043 34.8521V52.9296H17.7125L10.7384 59.9955Z"/>
</mask>
<path d="M10.7384 59.9955L10.3714 59.6284L17.3454 52.7461V35.0356L9.08667 26.8686L9.45373 26.5016L17.8043 34.8521V52.9296H17.7125L10.7384 59.9955Z" fill="#3CCEA2" fill-opacity="0.35"/>
<path d="M10.7384 59.9955L10.0313 60.7026L10.7431 61.4143L11.4501 60.6979L10.7384 59.9955ZM10.3714 59.6284L9.66896 58.9166L8.95246 59.6237L9.66426 60.3355L10.3714 59.6284ZM17.3454 52.7461L18.0478 53.4579L18.3454 53.1642V52.7461H17.3454ZM17.3454 35.0356H18.3454V34.6182L18.0486 34.3246L17.3454 35.0356ZM9.08667 26.8686L8.37956 26.1615L7.66849 26.8726L8.38352 27.5797L9.08667 26.8686ZM9.45373 26.5016L10.1608 25.7945L9.45373 25.0874L8.74662 25.7945L9.45373 26.5016ZM17.8043 34.8521H18.8043V34.4379L18.5114 34.145L17.8043 34.8521ZM17.8043 52.9296V53.9296H18.8043V52.9296H17.8043ZM17.7125 52.9296V51.9296H17.2944L17.0008 52.2272L17.7125 52.9296ZM11.4455 59.2884L11.0785 58.9213L9.66426 60.3355L10.0313 60.7026L11.4455 59.2884ZM11.0738 60.3402L18.0478 53.4579L16.643 52.0343L9.66896 58.9166L11.0738 60.3402ZM18.3454 52.7461V35.0356H16.3454V52.7461H18.3454ZM18.0486 34.3246L9.78982 26.1576L8.38352 27.5797L16.6423 35.7467L18.0486 34.3246ZM9.79378 27.5758L10.1608 27.2087L8.74662 25.7945L8.37956 26.1615L9.79378 27.5758ZM8.74662 27.2087L17.0971 35.5592L18.5114 34.145L10.1608 25.7945L8.74662 27.2087ZM16.8043 34.8521V52.9296H18.8043V34.8521H16.8043ZM17.8043 51.9296H17.7125V53.9296H17.8043V51.9296ZM17.0008 52.2272L10.0267 59.293L11.4501 60.6979L18.4242 53.6321L17.0008 52.2272Z" fill="#0F7EB7" mask="url(#path-16-inside-3_13_679)"/>
<path d="M107.842 142.075C107.485 142.075 107.169 141.815 107.112 141.452L106.85 139.816C106.133 135.33 102.814 131.759 98.389 130.719L84.7375 127.511C84.3405 127.417 84.0924 127.018 84.1857 126.619C84.279 126.22 84.676 125.974 85.077 126.068L98.7285 129.276C103.739 130.453 107.501 134.498 108.313 139.58L108.575 141.216C108.638 141.619 108.364 142 107.959 142.064C107.92 142.069 107.88 142.073 107.842 142.073V142.075Z" fill="#00E0FF"/>
<path d="M26.2804 142.075C26.2407 142.075 26.203 142.071 26.1633 142.065C25.7603 142.002 25.4844 141.621 25.5479 141.218L25.808 139.582C26.6199 134.5 30.3816 130.455 35.392 129.277L49.0416 126.069C49.4366 125.976 49.8376 126.222 49.9329 126.621C50.0262 127.02 49.78 127.417 49.381 127.513L35.7315 130.721C31.3087 131.761 27.9876 135.33 27.271 139.818L27.0109 141.454C26.9534 141.819 26.6377 142.077 26.2804 142.077V142.075Z" fill="#00E0FF"/>
<path d="M67.0604 141.714C66.8976 141.714 66.7348 141.661 66.5998 141.553L48.7498 127.37C48.4342 127.118 48.3766 126.659 48.6228 126.34L52.1483 121.746C53.2143 120.357 55.2133 120.094 56.6029 121.16L67.0584 129.184L77.5139 121.16C78.9035 120.094 80.9025 120.357 81.9685 121.746L85.494 126.34C85.7402 126.661 85.6846 127.12 85.367 127.37L67.517 141.553C67.382 141.661 67.2192 141.714 67.0564 141.714H67.0604ZM50.2406 126.663L67.0604 140.027L83.8782 126.663L80.7953 122.647C80.2256 121.905 79.1596 121.766 78.4171 122.334L67.511 130.703C67.245 130.907 66.8758 130.907 66.6098 130.703L55.7036 122.334C54.9612 121.764 53.8952 121.905 53.3255 122.647L50.2426 126.663H50.2406Z" fill="#00E0FF"/>
<path d="M67.0603 141.714C66.6513 141.714 66.3198 141.382 66.3198 140.973V133.531C66.3198 133.122 66.6513 132.791 67.0603 132.791C67.4692 132.791 67.8007 133.122 67.8007 133.531V140.973C67.8007 141.382 67.4692 141.714 67.0603 141.714Z" fill="#00E0FF"/>
<path d="M36.3309 138.099C35.7175 138.099 35.1061 137.956 34.5562 137.677L28.7299 134.723C28.3647 134.538 28.2198 134.091 28.4044 133.728C28.589 133.363 29.0356 133.218 29.3989 133.403L35.2252 136.356C35.7135 136.605 36.2793 136.68 36.8152 136.571L47.1517 134.451C47.5546 134.367 47.9437 134.627 48.0251 135.026C48.1065 135.427 47.8484 135.819 47.4494 135.9L37.113 138.02C36.8549 138.074 36.5909 138.099 36.3289 138.099H36.3309Z" fill="#00E0FF"/>
<path d="M97.7917 138.099C97.5297 138.099 97.2676 138.074 97.0076 138.02L86.6712 135.9C86.2702 135.819 86.0121 135.425 86.0955 135.026C86.1769 134.625 86.5679 134.367 86.9689 134.451L97.3053 136.571C97.8413 136.68 98.4071 136.605 98.8954 136.356L104.722 133.403C105.085 133.218 105.532 133.363 105.716 133.728C105.901 134.093 105.756 134.538 105.391 134.723L99.5644 137.677C99.0145 137.956 98.4031 138.099 97.7897 138.099H97.7917Z" fill="#00E0FF"/>
<path d="M77.2578 123.033C76.8488 123.033 76.5173 122.701 76.5173 122.292V115.9C76.5173 115.491 76.8488 115.16 77.2578 115.16C77.6667 115.16 77.9982 115.491 77.9982 115.9V122.292C77.9982 122.701 77.6667 123.033 77.2578 123.033Z" fill="#00E0FF"/>
<path d="M56.8628 123.033C56.4538 123.033 56.1223 122.701 56.1223 122.292V115.9C56.1223 115.491 56.4538 115.16 56.8628 115.16C57.2717 115.16 57.6032 115.491 57.6032 115.9V122.292C57.6032 122.701 57.2717 123.033 56.8628 123.033Z" fill="#00E0FF"/>
<path d="M47.3027 99.2133H45.3692C41.806 99.2133 38.9077 96.3151 38.9077 92.7518V90.0302C38.9077 86.467 41.806 83.5687 45.3692 83.5687H47.3027C47.7116 83.5687 48.0431 83.9002 48.0431 84.3092V98.4709C48.0431 98.8798 47.7116 99.2113 47.3027 99.2113V99.2133ZM45.3692 85.0516C42.6238 85.0516 40.3886 87.2848 40.3886 90.0322V92.7538C40.3886 95.4992 42.6218 97.7344 45.3692 97.7344H46.5623V85.0536H45.3692V85.0516Z" fill="#00E0FF"/>
<path d="M88.7513 99.2131H86.8178C86.4089 99.2131 86.0774 98.8816 86.0774 98.4727V84.311C86.0774 83.9021 86.4089 83.5706 86.8178 83.5706H88.7513C92.3146 83.5706 95.2128 86.4688 95.2128 90.0321V92.7536C95.2128 96.3169 92.3146 99.2151 88.7513 99.2151V99.2131ZM87.5583 97.7323H88.7513C91.4967 97.7323 93.7319 95.499 93.7319 92.7516V90.0301C93.7319 87.2847 91.4987 85.0495 88.7513 85.0495H87.5583V97.7303V97.7323Z" fill="#00E0FF"/>
<path d="M67.8604 118.957H66.2584C55.3979 118.957 46.5623 110.121 46.5623 99.2608V81.3234C46.5623 73.0575 51.7811 65.6134 59.5488 62.7985C59.9339 62.6595 60.3587 62.858 60.4977 63.2431C60.6366 63.6283 60.4381 64.0531 60.053 64.192C52.8689 66.7945 48.0431 73.6788 48.0431 81.3234V99.2608C48.0431 109.305 56.2138 117.476 66.2584 117.476H67.8604C77.905 117.476 86.0757 109.303 86.0757 99.2608V81.3234C86.0757 73.6788 81.2499 66.7945 74.0658 64.192C73.6807 64.0531 73.4822 63.6283 73.6212 63.2431C73.7601 62.858 74.1849 62.6595 74.57 62.7985C82.3377 65.6134 87.5566 73.0575 87.5566 81.3234V99.2608C87.5566 110.121 78.7209 118.957 67.8584 118.957H67.8604Z" fill="#00E0FF"/>
<path d="M67.0603 70.7091C66.6513 70.7091 66.3198 70.3776 66.3198 69.9687V63.1955C66.3198 62.7866 66.6513 62.4551 67.0603 62.4551C67.4692 62.4551 67.8007 62.7866 67.8007 63.1955V69.9687C67.8007 70.3776 67.4692 70.7091 67.0603 70.7091Z" fill="#00E0FF"/>
<path d="M64.6145 59.6103C64.6006 59.6103 64.5867 59.6103 64.5728 59.6103C64.1639 59.5865 63.8522 59.2371 63.876 58.8302L64.2373 52.4322C64.2611 52.0233 64.6125 51.7136 65.0175 51.7334C65.4264 51.7573 65.7381 52.1066 65.7142 52.5136L65.353 58.9116C65.3311 59.3066 65.0036 59.6103 64.6145 59.6103Z" fill="#00E0FF"/>
<path d="M69.2914 56.6309C68.9023 56.6309 68.5748 56.3272 68.553 55.9321L68.3604 52.5158C68.3366 52.1069 68.6502 51.7575 69.0572 51.7356C69.4641 51.7118 69.8155 52.0255 69.8373 52.4344L70.0299 55.8508C70.0537 56.2597 69.74 56.6091 69.3331 56.6309C69.3192 56.6309 69.3053 56.6309 69.2914 56.6309Z" fill="#00E0FF"/>
<path d="M73.5258 118.097C73.1169 118.097 72.7854 117.766 72.7854 117.357V106.028C72.7854 105.78 72.9085 105.55 73.1149 105.413L79.0821 101.421C79.4216 101.192 79.8821 101.284 80.1084 101.625C80.3367 101.965 80.2454 102.425 79.904 102.651L74.2643 106.425V117.359C74.2643 117.768 73.9328 118.099 73.5239 118.099L73.5258 118.097Z" fill="#00E0FF"/>
<path d="M59.606 109.226C59.1971 109.226 58.8656 108.894 58.8656 108.485V103.56L46.8557 94.5183C46.5282 94.2721 46.4627 93.8076 46.7088 93.4821C46.955 93.1545 47.4195 93.089 47.7451 93.3352L60.0507 102.6C60.2373 102.739 60.3465 102.959 60.3465 103.191V108.485C60.3465 108.894 60.015 109.226 59.606 109.226Z" fill="#00E0FF"/>
<path d="M56.8629 86.977C56.454 86.977 56.1224 86.6455 56.1224 86.2365V71.8466L52.19 68.7041C51.8704 68.4481 51.8187 67.9836 52.0728 67.664C52.3289 67.3444 52.7954 67.2927 53.113 67.5468L57.3234 70.9116C57.5001 71.0525 57.6013 71.2649 57.6013 71.4892V86.2365C57.6013 86.6455 57.2698 86.977 56.8609 86.977H56.8629Z" fill="#00E0FF"/>
<path d="M72.9342 78.4113C72.6821 78.4113 72.4379 78.2842 72.299 78.052C72.0885 77.7006 72.2017 77.246 72.5511 77.0356L78.294 73.5775V66.0103C78.294 65.6014 78.6255 65.2699 79.0344 65.2699C79.4433 65.2699 79.7748 65.6014 79.7748 66.0103V73.9964C79.7748 74.2564 79.6379 74.4966 79.4155 74.6316L73.3133 78.3041C73.1942 78.3755 73.0612 78.4093 72.9322 78.4093L72.9342 78.4113Z" fill="#00E0FF"/>
<path d="M67.0604 70.7109C66.6237 70.7109 66.1849 70.6017 65.7879 70.3814L60.3865 67.4037C59.2947 66.8022 58.7011 65.5715 58.9076 64.3447L60.6981 53.6728C60.8867 52.5472 61.8535 51.7294 62.9949 51.7294H71.1259C72.2673 51.7294 73.234 52.5472 73.4226 53.6728L75.2132 64.3447C75.4196 65.5735 74.8241 66.8022 73.7343 67.4037L68.3348 70.3814C67.9358 70.6017 67.4991 70.7109 67.0624 70.7109H67.0604ZM62.9949 53.2103C62.58 53.2103 62.2286 53.508 62.1592 53.917L60.3686 64.5889C60.2654 65.1983 60.5612 65.8077 61.1031 66.1074L66.5026 69.0851C66.8519 69.2777 67.2688 69.2777 67.6182 69.0851L73.0177 66.1074C73.5596 65.8097 73.8534 65.1983 73.7522 64.5889L71.9616 53.917C71.8921 53.508 71.5407 53.2103 71.1259 53.2103H62.9949Z" fill="white"/>
<path d="M80.9739 103.394C79.4176 103.394 78.1511 102.127 78.1511 100.571C78.1511 99.0145 79.4176 97.748 80.9739 97.748C82.5303 97.748 83.7967 99.0145 83.7967 100.571C83.7967 102.127 82.5303 103.394 80.9739 103.394ZM80.9739 99.2289C80.2335 99.2289 79.632 99.8304 79.632 100.571C79.632 101.311 80.2335 101.913 80.9739 101.913C81.7144 101.913 82.3159 101.311 82.3159 100.571C82.3159 99.8304 81.7144 99.2289 80.9739 99.2289Z" fill="white"/>
<path d="M59.6063 113.391C58.0499 113.391 56.7834 112.124 56.7834 110.568C56.7834 109.012 58.0499 107.745 59.6063 107.745C61.1626 107.745 62.4291 109.012 62.4291 110.568C62.4291 112.124 61.1626 113.391 59.6063 113.391ZM59.6063 109.226C58.8658 109.226 58.2643 109.827 58.2643 110.568C58.2643 111.308 58.8658 111.91 59.6063 111.91C60.3467 111.91 60.9482 111.308 60.9482 110.568C60.9482 109.827 60.3467 109.226 59.6063 109.226Z" fill="white"/>
<path d="M56.8629 91.1434C55.3065 91.1434 54.04 89.8769 54.04 88.3206C54.04 86.7643 55.3065 85.4978 56.8629 85.4978C58.4192 85.4978 59.6857 86.7643 59.6857 88.3206C59.6857 89.8769 58.4192 91.1434 56.8629 91.1434ZM56.8629 86.9787C56.1224 86.9787 55.5209 87.5802 55.5209 88.3206C55.5209 89.0611 56.1224 89.6625 56.8629 89.6625C57.6033 89.6625 58.2048 89.0611 58.2048 88.3206C58.2048 87.5802 57.6033 86.9787 56.8629 86.9787Z" fill="white"/>
<path d="M70.9251 81.1049C69.3688 81.1049 68.1023 79.8384 68.1023 78.282C68.1023 76.7257 69.3688 75.4592 70.9251 75.4592C72.4814 75.4592 73.7479 76.7257 73.7479 78.282C73.7479 79.8384 72.4814 81.1049 70.9251 81.1049ZM70.9251 76.9401C70.1847 76.9401 69.5832 77.5416 69.5832 78.282C69.5832 79.0225 70.1847 79.624 70.9251 79.624C71.6655 79.624 72.267 79.0225 72.267 78.282C72.267 77.5416 71.6655 76.9401 70.9251 76.9401Z" fill="white"/>
</svg>
