<svg width="136" height="190" viewBox="0 0 136 190" fill="none" xmlns="http://www.w3.org/2000/svg">
<mask id="path-1-inside-1_13_638" fill="white">
<path d="M18.0741 185.026H99.7803L124.469 160.337V144.406L129.593 139.282V89.9038L123.817 84.1275V61.861L135.556 50.1221V16.9551H135.463L118.693 1.8623H87.203L79.5634 9.50188H38.1047L9.68917 37.9174V57.1095L3.07442 63.7243V93.0714L11.273 101.27V158.101L5.86938 163.505V172.914L18.0741 185.119V185.026ZM99.4077 184.094H18.4467L6.70787 172.355V163.691L12.1115 158.287V100.711L3.9129 92.5124V63.9106L10.5277 57.2958V38.1037L38.3842 10.154H80.0292L87.6688 2.51446H118.413L134.717 17.3278V49.8426L122.979 61.5815V84.5934L128.755 90.3696V138.909L123.631 144.033V159.964L99.4077 184.187V184.094Z"/>
</mask>
<path d="M18.0741 185.026H99.7803L124.469 160.337V144.406L129.593 139.282V89.9038L123.817 84.1275V61.861L135.556 50.1221V16.9551H135.463L118.693 1.8623H87.203L79.5634 9.50188H38.1047L9.68917 37.9174V57.1095L3.07442 63.7243V93.0714L11.273 101.27V158.101L5.86938 163.505V172.914L18.0741 185.119V185.026ZM99.4077 184.094H18.4467L6.70787 172.355V163.691L12.1115 158.287V100.711L3.9129 92.5124V63.9106L10.5277 57.2958V38.1037L38.3842 10.154H80.0292L87.6688 2.51446H118.413L134.717 17.3278V49.8426L122.979 61.5815V84.5934L128.755 90.3696V138.909L123.631 144.033V159.964L99.4077 184.187V184.094Z" fill="#3CCEA2" fill-opacity="0.35"/>
<path d="M18.0741 185.026H17.0741V184.026H18.0741V185.026ZM99.7803 185.026L100.487 185.733L100.195 186.026H99.7803V185.026ZM124.469 160.337H125.469V160.751L125.176 161.044L124.469 160.337ZM124.469 144.406H123.469V143.991L123.762 143.699L124.469 144.406ZM129.593 139.282H130.593V139.696L130.3 139.989L129.593 139.282ZM129.593 89.9038L130.3 89.1967L130.593 89.4896V89.9038H129.593ZM123.817 84.1275L123.11 84.8346L122.817 84.5417V84.1275H123.817ZM123.817 61.861H122.817V61.4467L123.11 61.1539L123.817 61.861ZM135.556 50.1221H136.556V50.5363L136.263 50.8292L135.556 50.1221ZM135.556 16.9551V15.9551H136.556V16.9551H135.556ZM135.463 16.9551V17.9551H135.079L134.794 17.6984L135.463 16.9551ZM118.693 1.8623V0.862305H119.077L119.362 1.11901L118.693 1.8623ZM87.203 1.8623L86.4959 1.1552L86.7887 0.862305H87.203V1.8623ZM79.5634 9.50188L80.2705 10.209L79.9776 10.5019H79.5634V9.50188ZM38.1047 9.50188L37.3976 8.79478L37.6905 8.50188H38.1047V9.50188ZM9.68917 37.9174H8.68917V37.5032L8.98206 37.2103L9.68917 37.9174ZM9.68917 57.1095H10.6892V57.5237L10.3963 57.8166L9.68917 57.1095ZM3.07442 63.7243H2.07442V63.3101L2.36731 63.0172L3.07442 63.7243ZM3.07442 93.0714L2.36731 93.7785L2.07442 93.4856V93.0714H3.07442ZM11.273 101.27L11.9801 100.563L12.273 100.856V101.27H11.273ZM11.273 158.101H12.273V158.515L11.9801 158.808L11.273 158.101ZM5.86938 163.505H4.86938V163.09L5.16228 162.798L5.86938 163.505ZM5.86938 172.914L5.16228 173.621L4.86938 173.329V172.914H5.86938ZM18.0741 185.119H19.0741V187.533L17.367 185.826L18.0741 185.119ZM99.4076 184.094V183.094H100.408V184.094H99.4076ZM18.4467 184.094V185.094H18.0325L17.7396 184.801L18.4467 184.094ZM6.70787 172.355L6.00076 173.062L5.70787 172.77V172.355H6.70787ZM6.70787 163.691H5.70787V163.277L6.00076 162.984L6.70787 163.691ZM12.1115 158.287H13.1115V158.702L12.8186 158.994L12.1115 158.287ZM12.1115 100.711L12.8186 100.004L13.1115 100.297V100.711H12.1115ZM3.9129 92.5124L3.2058 93.2195L2.9129 92.9267V92.5124H3.9129ZM3.9129 63.9106H2.9129V63.4964L3.2058 63.2035L3.9129 63.9106ZM10.5277 57.2958H11.5277V57.7101L11.2348 58.0029L10.5277 57.2958ZM10.5277 38.1037H9.52766V37.6905L9.81937 37.3978L10.5277 38.1037ZM38.3842 10.154L37.6759 9.44812L37.969 9.15404H38.3842V10.154ZM80.0292 10.154L80.7363 10.8611L80.4434 11.154H80.0292V10.154ZM87.6688 2.51446L86.9617 1.80736L87.2546 1.51446H87.6688V2.51446ZM118.413 2.51446V1.51446H118.8L119.086 1.77433L118.413 2.51446ZM134.717 17.3278L135.39 16.5877L135.717 16.8853V17.3278H134.717ZM134.717 49.8426H135.717V50.2568L135.425 50.5497L134.717 49.8426ZM122.979 61.5815H121.979V61.1672L122.271 60.8744L122.979 61.5815ZM122.979 84.5934L122.271 85.3005L121.979 85.0076V84.5934H122.979ZM128.755 90.3696L129.462 89.6625L129.755 89.9554V90.3696H128.755ZM128.755 138.909H129.755V139.323L129.462 139.616L128.755 138.909ZM123.631 144.033H122.631V143.619L122.924 143.326L123.631 144.033ZM123.631 159.964H124.631V160.379L124.338 160.671L123.631 159.964ZM99.4076 184.187L100.115 184.895L98.4076 186.602V184.187H99.4076ZM18.0741 184.026H99.7803V186.026H18.0741V184.026ZM99.0732 184.319L123.762 159.63L125.176 161.044L100.487 185.733L99.0732 184.319ZM123.469 160.337V144.406H125.469V160.337H123.469ZM123.762 143.699L128.886 138.574L130.3 139.989L125.176 145.113L123.762 143.699ZM128.593 139.282V89.9038H130.593V139.282H128.593ZM128.886 90.6109L123.11 84.8346L124.524 83.4204L130.3 89.1967L128.886 90.6109ZM122.817 84.1275V61.861H124.817V84.1275H122.817ZM123.11 61.1539L134.849 49.415L136.263 50.8292L124.524 62.5681L123.11 61.1539ZM134.556 50.1221V16.9551H136.556V50.1221H134.556ZM135.556 17.9551H135.463V15.9551H135.556V17.9551ZM134.794 17.6984L118.024 2.6056L119.362 1.11901L136.132 16.2118L134.794 17.6984ZM118.693 2.8623H87.203V0.862305H118.693V2.8623ZM87.9101 2.56941L80.2705 10.209L78.8563 8.79478L86.4959 1.1552L87.9101 2.56941ZM79.5634 10.5019H38.1047V8.50188H79.5634V10.5019ZM38.8118 10.209L10.3963 38.6245L8.98206 37.2103L37.3976 8.79478L38.8118 10.209ZM10.6892 37.9174V57.1095H8.68917V37.9174H10.6892ZM10.3963 57.8166L3.78152 64.4314L2.36731 63.0172L8.98206 56.4024L10.3963 57.8166ZM4.07442 63.7243V93.0714H2.07442V63.7243H4.07442ZM3.78152 92.3643L11.9801 100.563L10.5659 101.977L2.36731 93.7785L3.78152 92.3643ZM12.273 101.27V158.101H10.273V101.27H12.273ZM11.9801 158.808L6.57649 164.212L5.16228 162.798L10.5659 157.394L11.9801 158.808ZM6.86938 163.505V172.914H4.86938V163.505H6.86938ZM6.57649 172.207L18.7812 184.412L17.367 185.826L5.16228 173.621L6.57649 172.207ZM17.0741 185.119V185.026H19.0741V185.119H17.0741ZM99.4076 185.094H18.4467V183.094H99.4076V185.094ZM17.7396 184.801L6.00076 173.062L7.41498 171.648L19.1538 183.387L17.7396 184.801ZM5.70787 172.355V163.691H7.70787V172.355H5.70787ZM6.00076 162.984L11.4044 157.58L12.8186 158.994L7.41498 164.398L6.00076 162.984ZM11.1115 158.287V100.711H13.1115V158.287H11.1115ZM11.4044 101.418L3.2058 93.2195L4.62001 91.8053L12.8186 100.004L11.4044 101.418ZM2.9129 92.5124V63.9106H4.9129V92.5124H2.9129ZM3.2058 63.2035L9.82056 56.5887L11.2348 58.0029L4.62001 64.6177L3.2058 63.2035ZM9.52766 57.2958V38.1037H11.5277V57.2958H9.52766ZM9.81937 37.3978L37.6759 9.44812L39.0925 10.86L11.2359 38.8097L9.81937 37.3978ZM38.3842 9.15404H80.0292V11.154H38.3842V9.15404ZM79.3221 9.44694L86.9617 1.80736L88.3759 3.22157L80.7363 10.8611L79.3221 9.44694ZM87.6688 1.51446H118.413V3.51446H87.6688V1.51446ZM119.086 1.77433L135.39 16.5877L134.045 18.0679L117.741 3.2546L119.086 1.77433ZM135.717 17.3278V49.8426H133.717V17.3278H135.717ZM135.425 50.5497L123.686 62.2886L122.271 60.8744L134.01 49.1355L135.425 50.5497ZM123.979 61.5815V84.5934H121.979V61.5815H123.979ZM123.686 83.8863L129.462 89.6625L128.048 91.0767L122.271 85.3005L123.686 83.8863ZM129.755 90.3696V138.909H127.755V90.3696H129.755ZM129.462 139.616L124.338 144.74L122.924 143.326L128.048 138.202L129.462 139.616ZM124.631 144.033V159.964H122.631V144.033H124.631ZM124.338 160.671L100.115 184.895L98.7005 183.48L122.924 159.257L124.338 160.671ZM98.4076 184.187V184.094H100.408V184.187H98.4076Z" fill="#A9B12B" mask="url(#path-1-inside-1_13_638)"/>
<path opacity="0.2" d="M14.0089 158.94V159.147L13.8625 159.293L8.60535 164.55V171.683L19.2128 182.29H98.6421L121.826 159.198V143.474V143.267L121.973 143.121L126.95 138.143V91.1358L121.321 85.506L121.174 85.3596V85.1525V61.0226V60.8155L121.321 60.669L132.913 49.0766V18.204L117.664 4.59839H88.4349L80.9417 12.0915L80.7953 12.238H80.5882H39.3366L12.5183 39.0563V58.0413V58.2504L12.3694 58.3973L5.81038 64.8652V91.9311L13.8605 99.8897L14.0089 100.037V100.245V158.94Z" fill="#3CCEA2" fill-opacity="0.35" stroke="#A9B12B"/>
<path d="M126.764 63.4446V63.2375L126.91 63.0911L134.563 55.4381C134.566 55.4297 134.569 55.4207 134.572 55.4113C134.597 55.3325 134.625 55.2277 134.643 55.1173C134.662 55.0036 134.667 54.9046 134.658 54.8306C134.652 54.7837 134.643 54.7633 134.64 54.7577C134.463 54.5837 134.222 54.5848 134.046 54.7611L125.901 62.9064V78.5374C125.901 78.7602 126.081 78.9691 126.332 78.9691C126.555 78.9691 126.764 78.7884 126.764 78.5374V63.4446Z" fill="#3CCEA2" fill-opacity="0.35" stroke="#A9B12B"/>
<path d="M6.68873 104.363L6.83518 104.51V104.717V113.102C6.83518 113.325 7.01592 113.533 7.26684 113.533C7.48957 113.533 7.69849 113.353 7.69849 113.102V104.179L1.31 97.7902C1.30156 97.7874 1.29261 97.7846 1.2832 97.7816C1.2044 97.757 1.09956 97.7286 0.989119 97.7102C0.875415 97.6913 0.776478 97.6865 0.702448 97.6957C0.655521 97.7016 0.635128 97.7108 0.629545 97.7138C0.455575 97.8909 0.456716 98.1313 0.632967 98.3076L6.68873 104.363Z" fill="#3CCEA2" fill-opacity="0.35" stroke="#A9B12B"/>
<path d="M7.26684 136.545C7.48957 136.545 7.69849 136.365 7.69849 136.114V125.959C7.69849 125.736 7.51776 125.527 7.26684 125.527C7.10096 125.527 7.00158 125.58 6.94493 125.637C6.88828 125.693 6.83518 125.793 6.83518 125.959V136.114C6.83518 136.336 7.01592 136.545 7.26684 136.545Z" fill="#3CCEA2" fill-opacity="0.35" stroke="#A9B12B"/>
<path d="M100.879 188.08L100.733 188.227H100.526H42.9493C42.7266 188.227 42.5177 188.407 42.5177 188.658C42.5177 188.824 42.5708 188.924 42.6274 188.98C42.6841 189.037 42.7834 189.09 42.9493 189.09H101.064L109.688 180.466C109.691 180.457 109.694 180.448 109.697 180.439C109.722 180.36 109.75 180.255 109.768 180.145C109.787 180.031 109.792 179.932 109.783 179.858C109.777 179.811 109.768 179.791 109.765 179.785C109.588 179.611 109.347 179.612 109.171 179.789L100.879 188.08Z" fill="#3CCEA2" fill-opacity="0.35" stroke="#A9B12B"/>
<path d="M44.1602 7.60428H72.1098C72.3326 7.60428 72.5415 7.42354 72.5415 7.17262C72.5415 7.00675 72.4884 6.90738 72.4317 6.85073C72.3751 6.79408 72.2757 6.74097 72.1098 6.74097H44.1602C43.9374 6.74097 43.7285 6.92171 43.7285 7.17262C43.7285 7.33849 43.7816 7.43787 43.8383 7.49452C43.8949 7.55117 43.9943 7.60428 44.1602 7.60428Z" fill="#3CCEA2" fill-opacity="0.35" stroke="#A9B12B"/>
<path d="M118.6 1.73455H118.792L118.934 1.86291L131.143 12.8507V11.4045L119.063 0.778076H104.639L103.637 1.73455H118.6Z" fill="#3CCEA2" fill-opacity="0.35" stroke="#A9B12B"/>
<path d="M9.65479 57.0965V42.6804L5.53068 46.8795V61.4456L9.65479 57.0965Z" fill="#3CCEA2" fill-opacity="0.35" stroke="#A9B12B"/>
<path d="M131.515 129.012V100.824L129.717 99.0261L129.631 130.897L131.515 129.012Z" fill="#3CCEA2" fill-opacity="0.35" stroke="#A9B12B"/>
<path d="M78.3392 183.969L74.9802 180.681H15.0134L18.4637 184.06L78.3392 183.969Z" fill="#3CCEA2" fill-opacity="0.35" stroke="#A9B12B"/>
<path d="M80.1982 10.3182L80.0514 10.4668H79.8425H38.5864L36.5432 12.4481H82.5235L92.3118 2.65979L87.6941 2.73083L80.1982 10.3182Z" fill="#3CCEA2" fill-opacity="0.35" stroke="#A9B12B"/>
<mask id="path-14-inside-2_13_638" fill="white">
<path d="M126.426 26.6438H135.183V26.178H126.612L107.42 6.98584H91.2092V7.45167H107.234L126.426 26.6438Z"/>
</mask>
<path d="M126.426 26.6438H135.183V26.178H126.612L107.42 6.98584H91.2092V7.45167H107.234L126.426 26.6438Z" fill="#3CCEA2" fill-opacity="0.35"/>
<path d="M126.426 26.6438V27.6438H126.012L125.719 27.3509L126.426 26.6438ZM135.183 26.6438H136.183V27.6438H135.183V26.6438ZM135.183 26.178V25.178H136.183V26.178H135.183ZM126.612 26.178V27.178H126.198L125.905 26.8851L126.612 26.178ZM107.42 6.98584V5.98584H107.834L108.127 6.27873L107.42 6.98584ZM91.2092 6.98584H90.2092V5.98584H91.2092V6.98584ZM91.2092 7.45167V8.45167H90.2092V7.45167H91.2092ZM107.234 7.45167V6.45167H107.648L107.941 6.74456L107.234 7.45167ZM126.426 25.6438H135.183V27.6438H126.426V25.6438ZM134.183 26.6438V26.178H136.183V26.6438H134.183ZM135.183 27.178H126.612V25.178H135.183V27.178ZM125.905 26.8851L106.713 7.69295L108.127 6.27873L127.319 25.4708L125.905 26.8851ZM107.42 7.98584H91.2092V5.98584H107.42V7.98584ZM92.2092 6.98584V7.45167H90.2092V6.98584H92.2092ZM91.2092 6.45167H107.234V8.45167H91.2092V6.45167ZM107.941 6.74456L127.133 25.9367L125.719 27.3509L106.527 8.15877L107.941 6.74456Z" fill="#A9B12B" mask="url(#path-14-inside-2_13_638)"/>
<mask id="path-16-inside-3_13_638" fill="white">
<path d="M125.028 60.1839L125.401 59.8113L118.32 52.8238V34.8429L126.705 26.5511L126.332 26.1785L117.854 34.6565V53.0102H117.947L125.028 60.1839Z"/>
</mask>
<path d="M125.028 60.1839L125.401 59.8113L118.32 52.8238V34.8429L126.705 26.5511L126.332 26.1785L117.854 34.6565V53.0102H117.947L125.028 60.1839Z" fill="#3CCEA2" fill-opacity="0.35"/>
<path d="M125.028 60.1839L125.735 60.891L125.023 61.6028L124.316 60.8864L125.028 60.1839ZM125.401 59.8113L126.103 59.0995L126.819 59.8066L126.108 60.5184L125.401 59.8113ZM118.32 52.8238L117.618 53.5356L117.32 53.2419V52.8238H118.32ZM118.32 34.8429H117.32V34.4254L117.617 34.1318L118.32 34.8429ZM126.705 26.5511L127.412 25.844L128.123 26.5551L127.408 27.2622L126.705 26.5511ZM126.332 26.1785L125.625 25.4714L126.332 24.7643L127.039 25.4714L126.332 26.1785ZM117.854 34.6565H116.854V34.2423L117.147 33.9494L117.854 34.6565ZM117.854 53.0102V54.0102H116.854V53.0102H117.854ZM117.947 53.0102V52.0102H118.365L118.659 52.3077L117.947 53.0102ZM124.321 59.4768L124.693 59.1041L126.108 60.5184L125.735 60.891L124.321 59.4768ZM124.698 60.523L117.618 53.5356L119.022 52.1121L126.103 59.0995L124.698 60.523ZM117.32 52.8238V34.8429H119.32V52.8238H117.32ZM117.617 34.1318L126.002 25.8401L127.408 27.2622L119.023 35.5539L117.617 34.1318ZM125.998 27.2582L125.625 26.8856L127.039 25.4714L127.412 25.844L125.998 27.2582ZM127.039 26.8856L118.561 35.3636L117.147 33.9494L125.625 25.4714L127.039 26.8856ZM118.854 34.6565V53.0102H116.854V34.6565H118.854ZM117.854 52.0102H117.947V54.0102H117.854V52.0102ZM118.659 52.3077L125.74 59.4814L124.316 60.8864L117.236 53.7126L118.659 52.3077Z" fill="#A9B12B" mask="url(#path-16-inside-3_13_638)"/>
<g clip-path="url(#clip0_13_638)">
<path d="M39.0762 142.058C38.4978 142.058 37.9233 141.923 37.4047 141.661L31.9585 138.9C31.6037 138.72 31.463 138.287 31.6423 137.934C31.8216 137.579 32.2554 137.438 32.6082 137.618L38.0544 140.379C38.5055 140.608 39.028 140.677 39.5235 140.575L49.186 138.593C49.5773 138.514 49.9552 138.765 50.0342 139.152C50.1133 139.542 49.8627 139.922 49.4752 140.001L39.8126 141.983C39.5697 142.033 39.321 142.058 39.0743 142.058H39.0762Z" fill="#F4FF30"/>
<path d="M96.5306 142.058C96.2838 142.058 96.0371 142.033 95.7922 141.983L86.1297 140.001C85.7403 139.922 85.4896 139.54 85.5706 139.152C85.6497 138.763 86.0295 138.512 86.4189 138.593L96.0814 140.575C96.5788 140.678 97.0993 140.608 97.5504 140.379L102.956 137.627C103.311 137.448 103.743 137.589 103.924 137.942C104.103 138.296 103.963 138.728 103.61 138.909L98.2021 141.663C97.6835 141.927 97.107 142.062 96.5287 142.062L96.5306 142.058Z" fill="#F4FF30"/>
<path d="M104.718 143.961C104.371 143.961 104.065 143.709 104.009 143.356L103.772 141.875C103.126 137.83 100.134 134.612 96.147 133.675L82.4861 130.464C82.2239 130.402 82.0176 130.2 81.952 129.938L80.6854 124.88C80.589 124.493 80.2266 124.238 79.8314 124.275L71.2176 125.088C70.94 125.115 70.699 125.279 70.5737 125.53L68.4241 129.839C68.3027 130.084 68.054 130.239 67.7802 130.239C67.5065 130.239 67.2578 130.084 67.1363 129.839L64.9867 125.53C64.8614 125.279 64.6224 125.115 64.3428 125.088L55.7291 124.275C55.3319 124.236 54.9714 124.491 54.8731 124.88L53.6065 129.938C53.5409 130.198 53.3346 130.402 53.0724 130.464L39.4134 133.675C35.4266 134.612 32.4345 137.83 31.7887 141.875L31.5516 143.356C31.4879 143.747 31.1197 144.015 30.7284 143.953C30.3351 143.892 30.069 143.522 30.1307 143.13L30.3678 141.649C31.1062 137.026 34.5263 133.347 39.0838 132.275L52.3167 129.165L53.4754 124.533C53.7472 123.45 54.7555 122.742 55.8621 122.846L64.4758 123.66C65.2528 123.733 65.9237 124.194 66.2707 124.892L67.7764 127.911L69.282 124.892C69.631 124.194 70.3019 123.733 71.0769 123.66L79.6906 122.846C80.803 122.742 81.8055 123.452 82.0754 124.533L83.236 129.165L96.4709 132.275C101.028 133.347 104.45 137.026 105.187 141.649L105.424 143.13C105.486 143.522 105.22 143.892 104.826 143.953C104.788 143.959 104.749 143.963 104.713 143.963L104.718 143.961Z" fill="#F4FF30"/>
<path d="M58.5439 134.353C58.4591 134.353 58.3743 134.338 58.2914 134.307C55.0699 133.094 52.4942 130.37 52.3863 130.254C52.1144 129.965 52.1299 129.51 52.419 129.238C52.7082 128.966 53.1651 128.981 53.435 129.271C53.4601 129.296 55.895 131.87 58.7965 132.961C59.1685 133.102 59.3555 133.516 59.2167 133.887C59.1088 134.176 58.835 134.353 58.5439 134.353V134.353Z" fill="#F4FF30"/>
<path d="M77.0168 134.353C76.7257 134.353 76.4519 134.176 76.344 133.887C76.2032 133.514 76.3922 133.1 76.7642 132.961C79.6657 131.87 82.1006 129.298 82.1257 129.271C82.3975 128.981 82.8525 128.966 83.1417 129.238C83.4308 129.51 83.4463 129.965 83.1744 130.254C83.0665 130.37 80.4908 133.094 77.2693 134.307C77.1864 134.338 77.0997 134.353 77.0168 134.353V134.353Z" fill="#F4FF30"/>
<path d="M67.7821 143.961C67.3849 143.961 67.063 143.639 67.063 143.242V133.397C67.063 133 67.3849 132.678 67.7821 132.678C68.1792 132.678 68.5012 133 68.5012 133.397V143.242C68.5012 143.639 68.1792 143.961 67.7821 143.961Z" fill="#F4FF30"/>
<path d="M76.5367 124.581C76.1396 124.581 75.8176 124.259 75.8176 123.862V117.758C75.8176 117.36 76.1396 117.038 76.5367 117.038C76.9339 117.038 77.2558 117.36 77.2558 117.758V123.862C77.2558 124.259 76.9339 124.581 76.5367 124.581Z" fill="#F4FF30"/>
<path d="M59.0238 124.581C58.6266 124.581 58.3047 124.259 58.3047 123.862V117.74C58.3047 117.343 58.6266 117.021 59.0238 117.021C59.4209 117.021 59.7429 117.343 59.7429 117.74V123.862C59.7429 124.259 59.4209 124.581 59.0238 124.581Z" fill="#F4FF30"/>
<path d="M72.8659 120.719H62.7253C62.0293 120.719 61.3449 120.482 60.7974 120.052L51.453 112.694C49.9993 111.551 49.1665 109.833 49.1665 107.984V86.356C49.1665 81.7458 50.9421 77.3921 54.1693 74.1008C54.447 73.8173 54.9019 73.8135 55.1873 74.0911C55.4707 74.3688 55.4764 74.8238 55.1969 75.1092C52.2357 78.1306 50.6066 82.1257 50.6066 86.3579V107.986C50.6066 109.392 51.239 110.695 52.3436 111.565L61.6881 118.922C61.983 119.154 62.3513 119.283 62.7253 119.283H72.8659C73.2418 119.283 73.6101 119.156 73.905 118.922L83.2225 111.566C84.3233 110.697 84.9556 109.393 84.9556 107.99V86.3579C84.9556 82.1276 83.3246 78.1325 80.3653 75.1111C80.0877 74.8277 80.0916 74.3726 80.375 74.093C80.6584 73.8154 81.1153 73.8192 81.3929 74.1027C84.6182 77.3959 86.3938 81.7478 86.3938 86.3579V107.99C86.3938 109.837 85.5629 111.551 84.1131 112.694L74.7957 120.05C74.2482 120.482 73.5619 120.721 72.864 120.721L72.8659 120.719Z" fill="#F4FF30"/>
<path d="M87.4274 104.712H85.6749C85.2778 104.712 84.9558 104.39 84.9558 103.993C84.9558 103.596 85.2778 103.274 85.6749 103.274H87.4274C89.8873 103.274 91.8885 101.272 91.8885 98.8099V97.7841C91.8885 95.3238 89.8873 93.3205 87.4274 93.3205H85.6749C85.2778 93.3205 84.9558 92.9985 84.9558 92.6013C84.9558 92.2041 85.2778 91.8821 85.6749 91.8821H87.4274C90.6816 91.8821 93.3286 94.5294 93.3286 97.7841V98.8099C93.3286 102.065 90.6816 104.712 87.4274 104.712V104.712Z" fill="#F4FF30"/>
<path d="M49.8876 104.712H48.1371C44.8828 104.712 42.2358 102.065 42.2358 98.8099V97.7841C42.2358 94.5294 44.8828 91.8821 48.1371 91.8821H49.8876C50.2847 91.8821 50.6067 92.2041 50.6067 92.6013C50.6067 92.9985 50.2847 93.3205 49.8876 93.3205H48.1371C45.6771 93.3205 43.674 95.3219 43.674 97.7841V98.8099C43.674 101.27 45.6752 103.274 48.1371 103.274H49.8876C50.2847 103.274 50.6067 103.596 50.6067 103.993C50.6067 104.39 50.2847 104.712 49.8876 104.712V104.712Z" fill="#F4FF30"/>
<path d="M63.1282 82.0042C63.0569 82.0042 62.9855 81.9946 62.9142 81.9714C58.2468 80.5215 55.3357 78.1981 54.0151 74.8701C53.512 73.4163 54.5453 67.5046 58.0868 63.0988C61.1926 59.2348 65.4359 57.4956 70.3577 58.0683C70.753 58.1146 71.0344 58.4713 70.9882 58.8665C70.9419 59.2618 70.5852 59.5433 70.19 59.499C65.7212 58.9803 62.0255 60.4939 59.205 64.0012C55.9025 68.11 55.0716 73.5339 55.3608 74.3707C56.5156 77.2784 59.0546 79.2663 63.3383 80.5986C63.7181 80.7162 63.9302 81.1192 63.8126 81.499C63.7162 81.8076 63.4328 82.0042 63.1263 82.0042H63.1282Z" fill="#A9B12B"/>
<path d="M67.7804 86.4312C67.3832 86.4312 67.0613 86.1092 67.0613 85.712C67.0613 85.3148 67.3832 84.9928 67.7804 84.9928C70.2808 84.9928 71.6246 82.7948 72.0159 80.9129C72.2183 79.9392 72.1085 78.2964 71.9812 76.3953C71.6381 71.2838 71.1677 64.2827 76.4134 62.0191C76.7778 61.8609 77.2019 62.0306 77.3581 62.395C77.5162 62.7595 77.3465 63.1837 76.9821 63.3398C72.6714 65.2005 73.084 71.3532 73.4156 76.2989C73.5505 78.3061 73.6662 80.0395 73.4233 81.206C72.8815 83.807 70.9267 86.4312 67.7804 86.4312Z" fill="#A9B12B"/>
<path d="M67.7803 86.4312C65.0504 86.4312 62.6425 84.1502 62.4111 81.3448C61.7441 73.2485 63.1669 68.5053 63.3462 67.9519C63.5043 67.171 65.3261 59.0246 72.9971 56.786C78.9196 55.0565 84.0226 57.5862 86.5366 59.2483C87.0629 59.5953 87.3502 60.1776 87.3078 60.8043C87.2653 61.4309 86.901 61.967 86.3361 62.2388C85.403 62.6862 84.0535 63.577 82.9199 65.2718C81.0884 68.0059 81.3988 70.5645 81.6244 72.4329C81.7516 73.4895 81.8538 74.3244 81.5145 74.9491C79.3707 78.6608 76.4692 80.9456 72.8814 81.7612C72.4959 81.8499 72.1084 81.607 72.0197 81.2194C71.931 80.8319 72.1739 80.4463 72.5614 80.3595C75.7424 79.6364 78.3316 77.581 80.2575 74.2473C80.3674 74.0429 80.2749 73.2794 80.1939 72.6064C79.9548 70.632 79.5943 67.6492 81.7227 64.4716C83.0375 62.5068 84.6184 61.4695 85.7115 60.9431C85.8406 60.8814 85.8676 60.7696 85.8715 60.7079C85.8753 60.6462 85.8638 60.5305 85.7423 60.4495C83.4366 58.9244 78.7653 56.6009 73.3981 58.1685C66.3672 60.2201 64.7632 68.1891 64.7497 68.2701C64.7439 68.3009 64.7342 68.3337 64.7246 68.3645C64.7092 68.4108 63.1746 73.1097 63.8455 81.2272C64.0171 83.3038 65.783 84.9928 67.7822 84.9928C68.1794 84.9928 68.5013 85.3148 68.5013 85.712C68.5013 86.1092 68.1794 86.4312 67.7822 86.4312H67.7803Z" fill="#A9B12B"/>
<circle cx="59.5" cy="98.5" r="5.5" fill="#D9D9D9"/>
<circle cx="76.5" cy="98.5" r="5.5" fill="#D9D9D9"/>
<path opacity="0.5" d="M67.7822 133.204C67.6761 133.204 67.5913 133.291 67.5913 133.395V143.24C67.5913 143.346 67.6781 143.431 67.7822 143.431C67.8863 143.431 67.973 143.344 67.973 143.24V133.395C67.973 133.289 67.8863 133.204 67.7822 133.204Z" fill="#A9B12B"/>
</g>
<defs>
<clipPath id="clip0_13_638">
<rect width="75.3125" height="87.7554" fill="white" transform="translate(30.125 56.2057)"/>
</clipPath>
</defs>
</svg>
