<svg width="445" height="321" viewBox="0 0 445 321" fill="none" xmlns="http://www.w3.org/2000/svg">
<path d="M300.393 295.639C305.562 290.48 308.467 283.477 308.467 276.174L308.467 188.102C308.467 172.914 296.155 160.602 280.967 160.602L192.605 160.602C185.321 160.602 178.334 163.492 173.179 168.637L156.692 185.091C151.522 190.25 148.617 197.253 148.617 204.556L148.617 292.628C148.617 307.816 160.93 320.128 176.117 320.128L264.48 320.128C271.764 320.128 278.75 317.239 283.906 312.093L300.393 295.639ZM278.031 162.532C293.771 162.532 306.531 175.292 306.531 191.032L306.531 274.962C306.531 282.53 303.52 289.788 298.163 295.135L283.397 309.871C278.054 315.203 270.814 318.198 263.265 318.198L179.02 318.198C163.28 318.198 150.52 305.438 150.52 289.698L150.52 205.777C150.52 198.204 153.535 190.941 158.899 185.594L173.689 170.849C179.032 165.523 186.267 162.532 193.811 162.532L278.031 162.532Z" stroke="#EF1FEF"/>
<path d="M195.088 168.248C187.793 168.248 180.796 171.147 175.639 176.306L158.961 192.992C157.222 194.731 156.245 197.09 156.245 199.55L156.245 218.222C156.245 219.628 157.947 220.33 158.938 219.333C159.231 219.038 159.396 218.639 159.396 218.222L159.396 208.651C159.396 201.762 162.152 195.161 167.05 190.317L177.135 180.345C182.478 175.062 189.691 172.102 197.204 172.11L278.413 172.194C280.048 172.195 280.975 170.323 279.984 169.024C279.61 168.535 279.03 168.248 278.415 168.248L195.088 168.248Z" stroke="#EF1FEF"/>
<mask id="path-3-inside-1_1_1037" fill="white">
<path d="M156.656 310.153L156.656 228.678C156.656 228.476 156.487 228.307 156.285 228.307C156.082 228.307 155.914 228.476 155.914 228.678L155.914 310.153C155.914 310.355 156.082 310.524 156.285 310.524C156.487 310.524 156.656 310.355 156.656 310.153Z"/>
</mask>
<path d="M155.656 310.153L155.656 228.678L157.656 228.678L157.656 310.153L155.656 310.153ZM155.656 228.678C155.656 229.03 155.937 229.307 156.285 229.307L156.285 227.307C157.038 227.307 157.656 227.921 157.656 228.678L155.656 228.678ZM156.285 229.307C156.633 229.307 156.914 229.03 156.914 228.678L154.914 228.678C154.914 227.921 155.532 227.307 156.285 227.307L156.285 229.307ZM156.914 228.678L156.914 310.153L154.914 310.153L154.914 228.678L156.914 228.678ZM156.914 310.153C156.914 309.801 156.633 309.524 156.285 309.524L156.285 311.524C155.532 311.524 154.914 310.91 154.914 310.153L156.914 310.153ZM156.285 309.524C155.937 309.524 155.656 309.801 155.656 310.153L157.656 310.153C157.656 310.91 157.038 311.524 156.285 311.524L156.285 309.524Z" fill="#EF1FEF" mask="url(#path-3-inside-1_1_1037)"/>
<mask id="path-5-inside-2_1_1037" fill="white">
<path d="M164.047 283.04L164.047 201.564C164.047 201.362 163.878 201.194 163.676 201.194C163.473 201.194 163.305 201.362 163.305 201.564L163.305 283.04C163.305 283.242 163.473 283.41 163.676 283.41C163.878 283.41 164.047 283.242 164.047 283.04Z"/>
</mask>
<path d="M163.047 283.04L163.047 201.564L165.047 201.564L165.047 283.04L163.047 283.04ZM163.047 201.564C163.047 201.916 163.328 202.194 163.676 202.194L163.676 200.194C164.429 200.194 165.047 200.808 165.047 201.564L163.047 201.564ZM163.676 202.194C164.024 202.194 164.305 201.916 164.305 201.564L162.305 201.564C162.305 200.808 162.923 200.194 163.676 200.194L163.676 202.194ZM164.305 201.564L164.305 283.04L162.305 283.04L162.305 201.564L164.305 201.564ZM164.305 283.04C164.305 282.688 164.024 282.41 163.676 282.41L163.676 284.41C162.923 284.41 162.305 283.796 162.305 283.04L164.305 283.04ZM163.676 282.41C163.328 282.41 163.047 282.688 163.047 283.04L165.047 283.04C165.047 283.796 164.429 284.41 163.676 284.41L163.676 282.41Z" fill="#EF1FEF" mask="url(#path-5-inside-2_1_1037)"/>
<mask id="path-7-inside-3_1_1037" fill="white">
<path d="M302.825 284.892L302.825 175.495C302.825 175.292 302.656 175.124 302.453 175.124C302.251 175.124 302.082 175.292 302.082 175.495L302.082 284.892C302.082 285.094 302.251 285.263 302.453 285.263C302.656 285.263 302.825 285.094 302.825 284.892Z"/>
</mask>
<path d="M301.825 284.892L301.825 175.495L303.825 175.495L303.825 284.892L301.825 284.892ZM301.825 175.495C301.825 175.847 302.105 176.124 302.453 176.124L302.453 174.124C303.206 174.124 303.825 174.738 303.825 175.495L301.825 175.495ZM302.453 176.124C302.801 176.124 303.082 175.847 303.082 175.495L301.082 175.495C301.082 174.738 301.7 174.124 302.453 174.124L302.453 176.124ZM303.082 175.495L303.082 284.892L301.082 284.892L301.082 175.495L303.082 175.495ZM303.082 284.892C303.082 284.54 302.801 284.263 302.453 284.263L302.453 286.263C301.7 286.263 301.082 285.648 301.082 284.892L303.082 284.892ZM302.453 284.263C302.105 284.263 301.825 284.54 301.825 284.892L303.825 284.892C303.825 285.648 303.206 286.263 302.453 286.263L302.453 284.263Z" fill="#EF1FEF" mask="url(#path-7-inside-3_1_1037)"/>
<mask id="path-9-inside-4_1_1037" fill="white">
<path d="M144.742 300.453L144.742 213.117C144.742 212.915 144.574 212.746 144.371 212.746C144.169 212.746 144 212.915 144 213.117L144 300.419C144 300.622 144.169 300.79 144.371 300.79C144.574 300.79 144.742 300.622 144.742 300.419L144.742 300.453Z"/>
</mask>
<path d="M143.742 300.453L143.742 213.117L145.742 213.117L145.742 300.453L143.742 300.453ZM143.742 213.117C143.742 213.469 144.023 213.746 144.371 213.746L144.371 211.746C145.124 211.746 145.742 212.361 145.742 213.117L143.742 213.117ZM144.371 213.746C144.719 213.746 145 213.469 145 213.117L143 213.117C143 212.361 143.618 211.746 144.371 211.746L144.371 213.746ZM145 213.117L145 300.419L143 300.419L143 213.117L145 213.117ZM145 300.419C145 300.067 144.719 299.79 144.371 299.79L144.371 301.79C143.618 301.79 143 301.176 143 300.419L145 300.419ZM144.371 299.79C144.023 299.79 143.742 300.067 143.742 300.419L145.742 300.419C145.742 301.176 145.124 301.79 144.371 301.79L144.371 299.79ZM145.742 300.419L145.742 300.453L143.742 300.453L143.742 300.419L145.742 300.419Z" fill="#EF1FEF" mask="url(#path-9-inside-4_1_1037)"/>
<g style="mix-blend-mode:overlay">
<path d="M52.6072 109.286L46.369 103.048C44.9937 101.673 43.1762 100.936 41.236 100.936H15.4482C14.0482 98.3818 11.3712 96.6135 8.25211 96.6135C3.70854 96.6135 0 100.322 0 104.866C0 109.409 3.70854 113.118 8.25211 113.118C11.5677 113.118 14.4166 111.128 15.7183 108.304H41.1623L47.3514 114.419V124.98C47.3514 126.92 48.1128 128.738 49.4636 130.113L55.186 135.836C56.3894 137.064 57.9858 137.751 59.6805 137.899H44.2569C43.4218 137.899 42.6359 137.555 42.0465 136.99L38.3379 133.281C37.0608 132.004 35.3171 131.292 33.5242 131.292H30.2823C29.5946 128.787 27.3351 126.945 24.609 126.945C21.3425 126.945 18.6901 129.597 18.6901 132.864C18.6901 136.13 21.3425 138.783 24.609 138.783C27.1141 138.783 29.2508 137.211 30.1104 135.001H33.5242C34.3592 135.001 35.1697 135.344 35.7346 135.909L39.4431 139.618C40.7202 140.895 42.464 141.607 44.2569 141.607H83.8228C84.6579 141.607 85.4438 141.926 86.0332 142.516L126.041 182.524C127.318 183.801 129.062 184.513 130.855 184.513H136.872C137.781 186.576 139.868 188.05 142.275 188.05C145.542 188.05 148.194 185.397 148.194 182.131C148.194 178.865 145.542 176.212 142.275 176.212C139.451 176.212 137.118 178.201 136.528 180.829H130.855C130.02 180.829 129.209 180.485 128.645 179.921L88.6365 139.913C87.4331 138.709 85.8613 138.046 84.1912 137.948H91.6083L115.8 162.115C117.175 163.49 118.993 164.251 120.933 164.251H137.928L145.075 171.374C146.45 172.749 148.268 173.486 150.208 173.486H150.552C152.026 175.696 154.555 177.145 157.404 177.145C161.948 177.145 165.656 173.437 165.656 168.893C165.656 164.35 161.948 160.641 157.404 160.641C153.99 160.641 151.068 162.704 149.815 165.651L143.159 158.996C141.784 157.62 139.967 156.859 138.026 156.859H121.031L96.8395 132.717C95.4642 131.341 93.6468 130.58 91.7065 130.58H60.4173L54.7439 124.98V114.419C54.7439 112.504 53.958 110.637 52.6318 109.286H52.6072ZM8.22755 105.725C7.73636 105.725 7.3434 105.332 7.3434 104.841C7.3434 104.35 7.73636 103.957 8.22755 103.957C8.71875 103.957 9.11171 104.35 9.11171 104.841C9.11171 105.332 8.71875 105.725 8.22755 105.725ZM24.5844 133.797C24.0441 133.797 23.5775 133.355 23.5775 132.79C23.5775 132.225 24.0195 131.783 24.5844 131.783C25.1493 131.783 25.5914 132.225 25.5914 132.79C25.5914 133.355 25.1493 133.797 24.5844 133.797ZM142.3 181.099C142.84 181.099 143.307 181.542 143.307 182.106C143.307 182.671 142.865 183.113 142.3 183.113C141.735 183.113 141.293 182.671 141.293 182.106C141.293 181.542 141.735 181.099 142.3 181.099ZM157.38 167.984C157.871 167.984 158.264 168.377 158.264 168.869C158.264 169.36 157.871 169.753 157.38 169.753C156.888 169.753 156.495 169.36 156.495 168.869C156.495 168.377 156.888 167.984 157.38 167.984Z" fill="#FF40C1" fill-opacity="0.5"/>
</g>
<g style="mix-blend-mode:overlay">
<path d="M228.456 98.3814L258.959 128.885C259.156 129.081 259.254 129.351 259.254 129.622V194.091C259.254 195.098 260.089 195.933 261.096 195.933C262.103 195.933 262.938 195.098 262.938 194.091V129.622C262.938 128.369 262.447 127.166 261.563 126.281L231.059 95.778C230.863 95.5816 230.765 95.3114 230.765 95.0412V45.0374C233.687 44.2023 235.701 41.1815 234.842 37.8413C234.326 35.852 232.705 34.2065 230.715 33.6907C226.786 32.6592 223.2 35.6064 223.2 39.3886C223.2 41.9183 224.797 44.0795 227.056 44.9146V95.0412C227.056 96.2938 227.547 97.4972 228.431 98.3814H228.456ZM229.144 38.3816C229.684 38.3816 230.151 38.8237 230.151 39.3886C230.151 39.9535 229.709 40.3955 229.144 40.3955C228.579 40.3955 228.137 39.9535 228.137 39.3886C228.137 38.8237 228.579 38.3816 229.144 38.3816Z" fill="#FF8EDA"/>
</g>
<g style="mix-blend-mode:overlay">
<path d="M229.61 152.241V194.091C229.61 195.098 230.445 195.933 231.452 195.933C232.459 195.933 233.294 195.098 233.294 194.091V152.266C233.294 151.996 233.392 151.726 233.589 151.529L235.652 149.466C237.003 150.154 238.624 150.424 240.367 149.761C242.234 149.073 243.732 147.428 244.125 145.463C244.985 141.238 241.325 137.579 237.101 138.439C235.161 138.832 233.515 140.305 232.803 142.172C232.164 143.891 232.385 145.487 233.049 146.838L230.986 148.901C230.101 149.785 229.61 150.989 229.61 152.241ZM238.329 143.228C238.869 143.228 239.336 143.67 239.336 144.235C239.336 144.8 238.894 145.242 238.329 145.242C237.764 145.242 237.322 144.8 237.322 144.235C237.322 143.67 237.764 143.228 238.329 143.228Z" fill="#FF8EDA"/>
</g>
<g style="mix-blend-mode:overlay">
<path d="M162.095 213.199H132.844C132.009 213.199 131.223 212.88 130.634 212.29L105.264 186.92C103.986 185.618 102.267 184.931 100.45 184.931H93.0573C92.2223 184.931 91.4364 184.611 90.8469 184.022L87.0647 180.24C87.384 178.496 87.2366 176.58 83.0369 173.854C82.5211 173.51 81.9071 173.265 81.2931 173.265C77.4864 173.265 74.4901 176.875 75.5953 180.854C76.1356 182.769 77.7074 184.317 79.6231 184.857C81.7843 185.471 83.7982 184.857 85.2227 183.555L88.2681 186.601C89.5452 187.878 91.289 188.59 93.0819 188.59H100.474C101.309 188.59 102.095 188.909 102.685 189.499L128.055 214.869C129.332 216.146 131.076 216.858 132.869 216.858H162.12C163.127 216.858 163.962 216.023 163.962 215.016C163.962 214.009 163.127 213.174 162.12 213.174L162.095 213.199ZM81.244 180.166C80.7037 180.166 80.2371 179.724 80.2371 179.159C80.2371 178.594 80.6791 178.152 81.244 178.152C81.8089 178.152 82.251 178.594 82.251 179.159C82.251 179.724 81.8089 180.166 81.244 180.166Z" fill="#FF8EDA"/>
</g>
<g style="mix-blend-mode:overlay">
<path d="M162.095 236.211H136.184C134.858 234.222 132.353 233.092 129.652 233.805C127.687 234.32 126.09 235.941 125.575 237.906C124.543 241.836 127.515 245.397 131.272 245.397C134.392 245.397 136.921 242.965 137.142 239.895H162.095C163.102 239.895 163.937 239.06 163.937 238.053C163.937 237.046 163.102 236.211 162.095 236.211ZM131.272 240.485C130.732 240.485 130.266 240.043 130.266 239.478C130.266 238.913 130.708 238.471 131.272 238.471C131.837 238.471 132.279 238.913 132.279 239.478C132.279 240.043 131.837 240.485 131.272 240.485Z" fill="#FF8EDA"/>
</g>
<g style="mix-blend-mode:overlay">
<path d="M289.855 267.206H333.204C334.26 267.206 335.291 267.624 336.028 268.385L362.553 294.91C362.454 296.53 362.946 298.151 364.345 299.478C365.745 300.804 367.759 301.442 369.65 301.049C373.359 300.239 375.299 296.334 373.899 292.994C373.285 291.545 372.155 290.415 370.706 289.801C369.97 289.506 369.208 289.359 368.447 289.359C367.686 289.359 366.9 289.506 366.187 289.826C365.402 290.169 364.714 290.661 364.124 291.275L338.656 265.806C337.207 264.357 335.267 263.547 333.228 263.547H289.88C288.873 263.547 288.038 264.382 288.038 265.389C288.038 266.396 288.873 267.231 289.88 267.231L289.855 267.206ZM367.514 294.885C367.563 294.738 367.71 294.492 368.054 294.345C368.57 294.148 369.135 294.369 369.356 294.885C369.577 295.401 369.331 295.99 368.815 296.187C368.693 296.236 368.57 296.26 368.422 296.26C368.029 296.26 367.661 296.039 367.489 295.646C367.342 295.327 367.44 295.032 367.489 294.885H367.514Z" fill="#FF8EDA"/>
</g>
<g style="mix-blend-mode:overlay">
<path d="M289.856 259.789H339.049C340.105 259.789 341.136 260.207 341.873 260.968L352.68 271.774C354.129 273.223 356.093 274.034 358.132 274.034H358.574C360.048 277.472 364.419 278.823 367.637 276.392C369.258 275.164 370.166 273.051 369.872 271.037C369.577 268.827 368.201 267.059 366.237 266.273C365.5 265.978 364.739 265.831 363.977 265.831C363.216 265.831 362.43 265.978 361.718 266.297C360.269 266.911 359.114 268.041 358.525 269.49C358.402 269.785 358.328 270.08 358.255 270.374H358.107C357.051 270.374 356.02 269.957 355.283 269.195L344.477 258.389C343.028 256.94 341.087 256.13 339.049 256.13H289.856C288.849 256.13 288.014 256.965 288.014 257.972C288.014 258.979 288.849 259.814 289.856 259.814V259.789ZM363.093 271.332C363.142 271.185 363.289 270.939 363.633 270.792C363.953 270.645 364.247 270.718 364.395 270.792C364.542 270.841 364.788 271.013 364.935 271.332C365.156 271.848 364.91 272.437 364.395 272.634C364.272 272.683 364.149 272.708 364.002 272.708C363.609 272.708 363.24 272.487 363.068 272.094C362.921 271.774 363.019 271.48 363.068 271.332H363.093Z" fill="#FF8EDA"/>
</g>
<g style="mix-blend-mode:overlay">
<path d="M289.855 230.538H343.347C344.403 230.538 345.434 230.955 346.171 231.717L349.094 234.639C348.799 235.818 348.848 237.095 349.364 238.299C349.978 239.748 351.108 240.902 352.557 241.491C354.03 242.105 355.627 242.081 357.076 241.491C358.525 240.878 359.679 239.748 360.269 238.299C360.883 236.85 360.858 235.229 360.269 233.78C359.335 231.52 357.125 230.145 354.792 230.145C354.03 230.145 353.269 230.292 352.532 230.587C351.992 230.808 351.55 231.127 351.108 231.471L348.75 229.113C347.301 227.664 345.361 226.854 343.322 226.854H289.831C288.824 226.854 287.989 227.689 287.989 228.696C287.989 229.703 288.824 230.538 289.831 230.538H289.855ZM354.448 235.13C354.939 234.934 355.529 235.155 355.75 235.671C355.897 236.015 355.799 236.285 355.75 236.432C355.7 236.58 355.553 236.825 355.209 236.972C355.062 237.022 354.939 237.046 354.816 237.046C354.644 237.046 354.522 236.997 354.423 236.972C354.276 236.923 354.03 236.751 353.883 236.432C353.662 235.916 353.908 235.327 354.423 235.13H354.448Z" fill="#FF8EDA"/>
</g>
<g style="mix-blend-mode:overlay">
<path d="M166.123 145.831C161.825 144.849 158.067 148.582 158.976 152.855C159.394 154.844 160.916 156.539 162.856 157.178C164.33 157.669 165.73 157.546 166.958 157.055L181.817 171.913C182.946 173.043 183.585 174.566 183.585 176.162V194.091C183.585 195.098 184.42 195.933 185.427 195.933C186.434 195.933 187.269 195.098 187.269 194.091V176.162C187.269 173.584 186.237 171.128 184.42 169.31L169.782 154.672C170.617 153.322 170.961 151.627 170.396 149.834C169.807 147.869 168.137 146.298 166.123 145.831ZM163.741 151.578C163.741 151.038 164.183 150.571 164.748 150.571C165.312 150.571 165.755 151.013 165.755 151.578C165.755 152.143 165.312 152.585 164.748 152.585C164.183 152.585 163.741 152.143 163.741 151.578Z" fill="#FF8EDA"/>
</g>
<g style="mix-blend-mode:overlay">
<path d="M187.957 142.393C187.957 138.586 184.346 135.614 180.392 136.719C178.501 137.235 176.954 138.758 176.389 140.624C175.48 143.694 177.003 146.494 179.459 147.698V149.196C179.459 151.774 180.49 154.23 182.308 156.048L189.602 163.342C190.732 164.472 191.37 165.995 191.37 167.591V194.116C191.37 195.123 192.205 195.958 193.212 195.958C194.219 195.958 195.054 195.123 195.054 194.116V167.591C195.054 165.012 194.023 162.556 192.205 160.739L184.911 153.445C183.781 152.315 183.143 150.792 183.143 149.196V148.213C185.869 147.698 187.932 145.291 187.932 142.417L187.957 142.393ZM182.038 141.386C182.578 141.386 183.045 141.828 183.045 142.393C183.045 142.957 182.603 143.4 182.038 143.4C181.473 143.4 181.031 142.957 181.031 142.393C181.031 141.828 181.473 141.386 182.038 141.386Z" fill="#FF8EDA"/>
</g>
<g style="mix-blend-mode:overlay">
<path d="M164.158 203.129H140.139C139.304 203.129 138.518 202.81 137.928 202.22L101.801 166.093C101.457 162.581 98.0675 159.928 94.2853 160.96C92.3451 161.5 90.7733 163.072 90.2575 165.012C89.2014 168.966 92.1732 172.552 95.9554 172.552C97.8956 172.552 99.5903 171.594 100.671 170.17L135.325 204.823C136.602 206.101 138.346 206.813 140.139 206.813H164.134C165.141 206.813 165.976 205.978 165.976 204.971C165.976 203.964 165.141 203.129 164.134 203.129H164.158ZM95.9554 167.64C95.4151 167.64 94.9484 167.198 94.9484 166.633C94.9484 166.068 95.3905 165.626 95.9554 165.626C96.5203 165.626 96.9623 166.068 96.9623 166.633C96.9623 167.198 96.5203 167.64 95.9554 167.64Z" fill="#FF8EDA"/>
</g>
<g style="mix-blend-mode:overlay">
<path d="M162.095 221.77H126.974C126.139 221.77 125.354 221.451 124.764 220.861L106.221 202.319C104.944 201.042 103.201 200.329 101.408 200.329H96.9378C95.808 197.775 92.91 196.154 89.7909 197.063C87.8998 197.603 86.377 199.175 85.8613 201.091C84.8052 205.045 87.7524 208.631 91.5592 208.631C94.3836 208.631 96.7167 206.641 97.3062 204.013H101.408C102.243 204.013 103.029 204.333 103.618 204.922L122.161 223.465C123.438 224.742 125.182 225.454 126.974 225.454H162.095C163.102 225.454 163.937 224.619 163.937 223.612C163.937 222.605 163.102 221.77 162.095 221.77ZM91.5346 203.694C90.9943 203.694 90.5277 203.252 90.5277 202.687C90.5277 202.122 90.9697 201.68 91.5346 201.68C92.0995 201.68 92.5416 202.122 92.5416 202.687C92.5416 203.252 92.0995 203.694 91.5346 203.694Z" fill="#FF8EDA"/>
</g>
<g style="mix-blend-mode:overlay">
<path d="M162.095 274.058H113.319C111.502 274.058 109.783 274.771 108.505 276.048L86.8436 297.709C86.2542 298.299 85.4683 298.618 84.6332 298.618H75.4724C74.2935 296.309 71.6656 294.836 68.7676 295.548C66.7291 296.039 65.059 297.685 64.5187 299.699C63.4872 303.628 66.4589 307.19 70.2166 307.19C73.1147 307.19 75.5215 305.077 76.0127 302.302H84.6332C86.4507 302.302 88.1699 301.59 89.447 300.313L111.109 278.651C111.698 278.062 112.484 277.742 113.319 277.742H162.095C163.102 277.742 163.937 276.907 163.937 275.9C163.937 274.893 163.102 274.058 162.095 274.058ZM70.192 302.302C69.6517 302.302 69.1851 301.86 69.1851 301.295C69.1851 300.73 69.6272 300.288 70.192 300.288C70.7569 300.288 71.199 300.73 71.199 301.295C71.199 301.86 70.7569 302.302 70.192 302.302Z" fill="#FF8EDA"/>
</g>
<g style="mix-blend-mode:overlay">
<path d="M289.856 275.409H325.394C326.45 275.409 327.481 275.826 328.218 276.588L363.461 311.831C363.044 313.575 363.388 315.417 364.591 316.939C365.844 318.536 367.956 319.371 369.97 319.076C372.131 318.757 373.85 317.382 374.661 315.466C375.275 314.017 375.25 312.396 374.661 310.947C374.047 309.498 372.917 308.343 371.468 307.754C370.731 307.459 369.97 307.312 369.208 307.312C368.447 307.312 367.661 307.459 366.924 307.779C366.384 308 365.917 308.319 365.475 308.663L330.821 274.009C329.372 272.56 327.432 271.749 325.394 271.749H289.856C288.849 271.749 288.014 272.584 288.014 273.591C288.014 274.598 288.849 275.433 289.856 275.433V275.409ZM368.275 312.813C368.324 312.666 368.472 312.42 368.815 312.273C369.159 312.126 369.429 312.199 369.577 312.273C369.724 312.322 369.97 312.494 370.117 312.813C370.264 313.133 370.166 313.427 370.117 313.575C370.068 313.722 369.921 313.968 369.577 314.115C369.454 314.164 369.331 314.189 369.184 314.189C368.791 314.189 368.423 313.968 368.251 313.575C368.103 313.231 368.201 312.961 368.251 312.813H368.275Z" fill="#FF8EDA"/>
</g>
<g style="mix-blend-mode:overlay">
<path d="M289.856 252.396H349.069C349.487 254.312 350.567 256.154 355.848 256.743C356.265 256.792 356.707 256.743 357.1 256.596C360.097 255.343 361.521 251.88 360.293 248.859C359.679 247.41 358.549 246.281 357.076 245.667C356.339 245.372 355.578 245.225 354.816 245.225C354.055 245.225 353.269 245.372 352.557 245.691C351.157 246.281 350.076 247.361 349.462 248.737H289.856C288.849 248.737 288.014 249.572 288.014 250.579C288.014 251.586 288.849 252.421 289.856 252.421V252.396ZM353.908 250.751C353.957 250.603 354.104 250.358 354.448 250.21C354.767 250.063 355.062 250.161 355.209 250.21C355.357 250.259 355.602 250.431 355.75 250.751C355.971 251.266 355.725 251.856 355.209 252.052C355.087 252.101 354.964 252.126 354.816 252.126C354.423 252.126 354.055 251.905 353.883 251.512C353.736 251.168 353.834 250.898 353.883 250.751H353.908Z" fill="#FF8EDA"/>
</g>
<g style="mix-blend-mode:overlay">
<path d="M432.032 152.683L431.124 151.774C429.675 150.325 427.734 149.515 425.696 149.515H344.206C342.168 149.515 340.203 150.325 338.779 151.774L335.095 155.458C333.646 156.907 332.835 158.847 332.835 160.886V205.02C332.835 206.076 332.418 207.107 331.656 207.844L329.028 210.472C328.267 211.233 327.26 211.651 326.204 211.651H289.88C288.873 211.651 288.038 212.486 288.038 213.493C288.038 214.5 288.873 215.335 289.88 215.335H326.204C328.242 215.335 330.207 214.525 331.632 213.075L334.26 210.448C335.709 208.999 336.519 207.058 336.519 205.02V160.886C336.519 159.83 336.937 158.798 337.698 158.061L341.382 154.377C342.143 153.616 343.15 153.199 344.206 153.199H425.696C426.752 153.199 427.784 153.616 428.52 154.377L429.429 155.286C430.19 156.047 430.608 157.054 430.608 158.11V177.513C430.608 179.551 431.418 181.516 432.867 182.941L433.776 183.849C433.088 185.323 432.966 187.042 433.629 188.663C434.243 190.112 435.373 191.242 436.846 191.856C438.295 192.47 439.916 192.445 441.365 191.856C442.814 191.242 443.969 190.112 444.558 188.663C445.147 187.214 445.147 185.593 444.558 184.144C443.625 181.884 441.414 180.509 439.081 180.509C438.32 180.509 437.558 180.656 436.822 180.951C436.65 181.025 436.502 181.123 436.33 181.221L435.471 180.362C434.709 179.6 434.292 178.593 434.292 177.537V158.135C434.292 156.097 433.481 154.156 432.032 152.707V152.683ZM438.688 185.47C439.204 185.274 439.793 185.495 439.99 186.011C440.137 186.354 440.039 186.625 439.99 186.772C439.941 186.919 439.793 187.165 439.449 187.312C439.302 187.361 439.179 187.386 439.057 187.386C438.885 187.386 438.762 187.337 438.664 187.312C438.516 187.263 438.271 187.116 438.123 186.772C437.902 186.256 438.148 185.667 438.664 185.47H438.688Z" fill="#FF8EDA"/>
</g>
<g style="mix-blend-mode:overlay">
<path d="M193.335 142.196C191.346 142.712 189.725 144.333 189.209 146.322C188.178 150.252 191.149 153.813 194.907 153.813C195.595 153.813 196.258 153.665 196.896 153.444L199.647 156.195C199.844 156.392 199.942 156.637 199.942 156.932V194.091C199.942 195.098 200.777 195.933 201.784 195.933C202.791 195.933 203.626 195.098 203.626 194.091V156.932C203.626 155.679 203.135 154.476 202.25 153.592L199.819 151.16C200.433 150.227 200.801 149.097 200.801 147.894C200.801 144.112 197.24 141.165 193.311 142.196H193.335ZM193.925 147.894C193.925 147.354 194.367 146.887 194.932 146.887C195.497 146.887 195.939 147.329 195.939 147.894C195.939 148.459 195.497 148.901 194.932 148.901C194.367 148.901 193.925 148.459 193.925 147.894Z" fill="#FF8EDA"/>
</g>
<g style="mix-blend-mode:overlay">
<path d="M202.791 97.7917V119.724C202.791 120.976 203.282 122.18 204.166 123.064L209.004 127.902C209.889 128.786 211.092 129.277 212.345 129.277H244.1C244.371 129.277 244.641 129.376 244.837 129.572L252.721 137.456C252.917 137.652 253.016 137.923 253.016 138.193V194.066C253.016 195.073 253.851 195.908 254.858 195.908C255.865 195.908 256.7 195.073 256.7 194.066V138.193C256.7 136.94 256.208 135.737 255.324 134.853L247.441 126.969C246.556 126.085 245.353 125.593 244.1 125.593H212.345C212.074 125.593 211.804 125.495 211.608 125.299L206.769 120.436C206.573 120.239 206.475 119.969 206.475 119.699V97.1777C208.759 95.9743 210.183 93.371 209.496 90.4975C209.004 88.459 207.383 86.7889 205.345 86.2486C201.415 85.2171 197.854 88.1643 197.854 91.9465C197.854 94.8691 199.991 97.3005 202.791 97.7672V97.7917ZM203.749 90.9886C204.289 90.9886 204.756 91.4307 204.756 91.9956C204.756 92.5605 204.313 93.0026 203.749 93.0026C203.184 93.0026 202.742 92.5605 202.742 91.9956C202.742 91.4307 203.184 90.9886 203.749 90.9886Z" fill="#FF8EDA"/>
</g>
<g style="mix-blend-mode:overlay">
<path d="M218.288 11.5622V16.3023C218.288 18.9056 220.4 21.0178 223.004 21.0178H227.916C228.186 21.0178 228.456 21.116 228.652 21.3125L235.947 28.6068C236.143 28.8032 236.241 29.0488 236.241 29.319V89.3679C236.241 90.6204 236.733 91.8238 237.617 92.708L267.162 122.254C267.359 122.45 267.457 122.696 267.457 122.966V194.067C267.457 195.074 268.292 195.909 269.299 195.909C270.306 195.909 271.141 195.074 271.141 194.067V122.966C271.141 121.713 270.625 120.51 269.766 119.626L240.245 90.1047C240.048 89.9082 239.95 89.638 239.95 89.3679V29.3436C239.95 28.091 239.459 26.8876 238.575 26.0034L231.28 18.7091C230.396 17.825 229.193 17.3338 227.94 17.3338H223.028C222.463 17.3338 221.997 16.8671 221.997 16.3023V11.4394C224.723 10.4325 226.516 7.48528 225.632 4.26794C225.116 2.32771 223.519 0.731317 221.555 0.21556C217.6 -0.840515 214.015 2.13123 214.015 5.91345C214.015 8.59047 215.832 10.85 218.288 11.5622ZM219.934 4.90649C220.474 4.90649 220.941 5.34857 220.941 5.91345C220.941 6.47832 220.499 6.9204 219.934 6.9204C219.369 6.9204 218.927 6.47832 218.927 5.91345C218.927 5.34857 219.369 4.90649 219.934 4.90649Z" fill="#FF8EDA"/>
</g>
<g style="mix-blend-mode:overlay">
<path d="M164.158 203.129H140.139C139.304 203.129 138.518 202.81 137.928 202.22L101.801 166.093C101.457 162.581 98.0675 159.928 94.2853 160.96C92.3451 161.5 90.7733 163.072 90.2575 165.012C89.2014 168.966 92.1732 172.552 95.9554 172.552C97.8956 172.552 99.5903 171.594 100.671 170.17L135.325 204.823C136.602 206.101 138.346 206.813 140.139 206.813H164.134C165.141 206.813 165.976 205.978 165.976 204.971C165.976 203.964 165.141 203.129 164.134 203.129H164.158ZM95.9554 167.64C95.4151 167.64 94.9484 167.198 94.9484 166.633C94.9484 166.068 95.3905 165.626 95.9554 165.626C96.5203 165.626 96.9623 166.068 96.9623 166.633C96.9623 167.198 96.5203 167.64 95.9554 167.64Z" fill="#FF8EDA"/>
</g>
<g style="mix-blend-mode:overlay">
<path d="M162.095 221.77H126.974C126.139 221.77 125.354 221.451 124.764 220.861L106.221 202.319C104.944 201.042 103.201 200.329 101.408 200.329H96.9378C95.808 197.775 92.91 196.154 89.7909 197.063C87.8998 197.603 86.377 199.175 85.8613 201.091C84.8052 205.045 87.7524 208.631 91.5592 208.631C94.3836 208.631 96.7167 206.641 97.3062 204.013H101.408C102.243 204.013 103.029 204.333 103.618 204.922L122.161 223.465C123.438 224.742 125.182 225.454 126.974 225.454H162.095C163.102 225.454 163.937 224.619 163.937 223.612C163.937 222.605 163.102 221.77 162.095 221.77ZM91.5346 203.694C90.9943 203.694 90.5277 203.252 90.5277 202.687C90.5277 202.122 90.9697 201.68 91.5346 201.68C92.0995 201.68 92.5416 202.122 92.5416 202.687C92.5416 203.252 92.0995 203.694 91.5346 203.694Z" fill="#FF8EDA"/>
</g>
<g style="mix-blend-mode:overlay">
<path d="M162.095 274.058H113.319C111.502 274.058 109.783 274.771 108.505 276.048L86.8436 297.709C86.2542 298.299 85.4683 298.618 84.6332 298.618H75.4724C74.2935 296.309 71.6656 294.836 68.7676 295.548C66.7291 296.039 65.059 297.685 64.5187 299.699C63.4872 303.628 66.4589 307.19 70.2166 307.19C73.1147 307.19 75.5215 305.077 76.0127 302.302H84.6332C86.4507 302.302 88.1699 301.59 89.447 300.313L111.109 278.651C111.698 278.062 112.484 277.742 113.319 277.742H162.095C163.102 277.742 163.937 276.907 163.937 275.9C163.937 274.893 163.102 274.058 162.095 274.058ZM70.192 302.302C69.6517 302.302 69.1851 301.86 69.1851 301.295C69.1851 300.73 69.6272 300.288 70.192 300.288C70.7569 300.288 71.199 300.73 71.199 301.295C71.199 301.86 70.7569 302.302 70.192 302.302Z" fill="#FF8EDA"/>
</g>
<g style="mix-blend-mode:overlay">
<path d="M289.856 275.409H325.394C326.45 275.409 327.481 275.826 328.218 276.588L363.461 311.831C363.044 313.575 363.388 315.417 364.591 316.939C365.844 318.536 367.956 319.371 369.97 319.076C372.131 318.757 373.85 317.382 374.661 315.466C375.275 314.017 375.25 312.396 374.661 310.947C374.047 309.498 372.917 308.343 371.468 307.754C370.731 307.459 369.97 307.312 369.208 307.312C368.447 307.312 367.661 307.459 366.924 307.779C366.384 308 365.917 308.319 365.475 308.663L330.821 274.009C329.372 272.56 327.432 271.749 325.394 271.749H289.856C288.849 271.749 288.014 272.584 288.014 273.591C288.014 274.598 288.849 275.433 289.856 275.433V275.409ZM368.275 312.813C368.324 312.666 368.472 312.42 368.815 312.273C369.159 312.126 369.429 312.199 369.577 312.273C369.724 312.322 369.97 312.494 370.117 312.813C370.264 313.133 370.166 313.427 370.117 313.575C370.068 313.722 369.921 313.968 369.577 314.115C369.454 314.164 369.331 314.189 369.184 314.189C368.791 314.189 368.423 313.968 368.251 313.575C368.103 313.231 368.201 312.961 368.251 312.813H368.275Z" fill="#FF8EDA"/>
</g>
<g style="mix-blend-mode:overlay">
<path d="M289.856 252.396H349.069C349.487 254.312 350.567 256.154 355.848 256.743C356.265 256.792 356.707 256.743 357.1 256.596C360.097 255.343 361.521 251.88 360.293 248.859C359.679 247.41 358.549 246.281 357.076 245.667C356.339 245.372 355.578 245.225 354.816 245.225C354.055 245.225 353.269 245.372 352.557 245.691C351.157 246.281 350.076 247.361 349.462 248.737H289.856C288.849 248.737 288.014 249.572 288.014 250.579C288.014 251.586 288.849 252.421 289.856 252.421V252.396ZM353.908 250.751C353.957 250.603 354.104 250.358 354.448 250.21C354.767 250.063 355.062 250.161 355.209 250.21C355.357 250.259 355.602 250.431 355.75 250.751C355.971 251.266 355.725 251.856 355.209 252.052C355.087 252.101 354.964 252.126 354.816 252.126C354.423 252.126 354.055 251.905 353.883 251.512C353.736 251.168 353.834 250.898 353.883 250.751H353.908Z" fill="#FF8EDA"/>
</g>
<g style="mix-blend-mode:overlay">
<path d="M432.032 152.683L431.124 151.774C429.675 150.325 427.734 149.515 425.696 149.515H344.206C342.168 149.515 340.203 150.325 338.779 151.774L335.095 155.458C333.646 156.907 332.835 158.847 332.835 160.886V205.02C332.835 206.076 332.418 207.107 331.656 207.844L329.028 210.472C328.267 211.233 327.26 211.651 326.204 211.651H289.88C288.873 211.651 288.038 212.486 288.038 213.493C288.038 214.5 288.873 215.335 289.88 215.335H326.204C328.242 215.335 330.207 214.525 331.632 213.075L334.26 210.448C335.709 208.999 336.519 207.058 336.519 205.02V160.886C336.519 159.83 336.937 158.798 337.698 158.061L341.382 154.377C342.143 153.616 343.15 153.199 344.206 153.199H425.696C426.752 153.199 427.784 153.616 428.52 154.377L429.429 155.286C430.19 156.047 430.608 157.054 430.608 158.11V177.513C430.608 179.551 431.418 181.516 432.867 182.941L433.776 183.849C433.088 185.323 432.966 187.042 433.629 188.663C434.243 190.112 435.373 191.242 436.846 191.856C438.295 192.47 439.916 192.445 441.365 191.856C442.814 191.242 443.969 190.112 444.558 188.663C445.147 187.214 445.147 185.593 444.558 184.144C443.625 181.884 441.414 180.509 439.081 180.509C438.32 180.509 437.558 180.656 436.822 180.951C436.65 181.025 436.502 181.123 436.33 181.221L435.471 180.362C434.709 179.6 434.292 178.593 434.292 177.537V158.135C434.292 156.097 433.481 154.156 432.032 152.707V152.683ZM438.688 185.47C439.204 185.274 439.793 185.495 439.99 186.011C440.137 186.354 440.039 186.625 439.99 186.772C439.941 186.919 439.793 187.165 439.449 187.312C439.302 187.361 439.179 187.386 439.057 187.386C438.885 187.386 438.762 187.337 438.664 187.312C438.516 187.263 438.271 187.116 438.123 186.772C437.902 186.256 438.148 185.667 438.664 185.47H438.688Z" fill="#FF8EDA"/>
</g>
<g style="mix-blend-mode:overlay">
<path d="M193.335 142.196C191.346 142.712 189.725 144.333 189.209 146.322C188.178 150.252 191.149 153.813 194.907 153.813C195.595 153.813 196.258 153.665 196.896 153.444L199.647 156.195C199.844 156.392 199.942 156.637 199.942 156.932V194.091C199.942 195.098 200.777 195.933 201.784 195.933C202.791 195.933 203.626 195.098 203.626 194.091V156.932C203.626 155.679 203.135 154.476 202.25 153.592L199.819 151.16C200.433 150.227 200.801 149.097 200.801 147.894C200.801 144.112 197.24 141.165 193.311 142.196H193.335ZM193.925 147.894C193.925 147.354 194.367 146.887 194.932 146.887C195.497 146.887 195.939 147.329 195.939 147.894C195.939 148.459 195.497 148.901 194.932 148.901C194.367 148.901 193.925 148.459 193.925 147.894Z" fill="#FF8EDA"/>
</g>
<g style="mix-blend-mode:overlay">
<path d="M202.791 97.7917V119.724C202.791 120.976 203.282 122.18 204.166 123.064L209.004 127.902C209.889 128.786 211.092 129.277 212.345 129.277H244.1C244.371 129.277 244.641 129.376 244.837 129.572L252.721 137.456C252.917 137.652 253.016 137.923 253.016 138.193V194.066C253.016 195.073 253.851 195.908 254.858 195.908C255.865 195.908 256.7 195.073 256.7 194.066V138.193C256.7 136.94 256.208 135.737 255.324 134.853L247.441 126.969C246.556 126.085 245.353 125.593 244.1 125.593H212.345C212.074 125.593 211.804 125.495 211.608 125.299L206.769 120.436C206.573 120.239 206.475 119.969 206.475 119.699V97.1777C208.759 95.9743 210.183 93.371 209.496 90.4975C209.004 88.459 207.383 86.7889 205.345 86.2486C201.415 85.2171 197.854 88.1643 197.854 91.9465C197.854 94.8691 199.991 97.3005 202.791 97.7672V97.7917ZM203.749 90.9886C204.289 90.9886 204.756 91.4307 204.756 91.9956C204.756 92.5605 204.313 93.0026 203.749 93.0026C203.184 93.0026 202.742 92.5605 202.742 91.9956C202.742 91.4307 203.184 90.9886 203.749 90.9886Z" fill="#FF8EDA"/>
</g>
<g style="mix-blend-mode:overlay">
<path d="M218.288 11.5622V16.3023C218.288 18.9056 220.4 21.0178 223.004 21.0178H227.916C228.186 21.0178 228.456 21.116 228.652 21.3125L235.947 28.6068C236.143 28.8032 236.241 29.0488 236.241 29.319V89.3679C236.241 90.6204 236.733 91.8238 237.617 92.708L267.162 122.254C267.359 122.45 267.457 122.696 267.457 122.966V194.067C267.457 195.074 268.292 195.909 269.299 195.909C270.306 195.909 271.141 195.074 271.141 194.067V122.966C271.141 121.713 270.625 120.51 269.766 119.626L240.245 90.1047C240.048 89.9082 239.95 89.638 239.95 89.3679V29.3436C239.95 28.091 239.459 26.8876 238.575 26.0034L231.28 18.7091C230.396 17.825 229.193 17.3338 227.94 17.3338H223.028C222.463 17.3338 221.997 16.8671 221.997 16.3023V11.4394C224.723 10.4325 226.516 7.48528 225.632 4.26794C225.116 2.32771 223.519 0.731317 221.555 0.21556C217.6 -0.840515 214.015 2.13123 214.015 5.91345C214.015 8.59047 215.832 10.85 218.288 11.5622ZM219.934 4.90649C220.474 4.90649 220.941 5.34857 220.941 5.91345C220.941 6.47832 220.499 6.9204 219.934 6.9204C219.369 6.9204 218.927 6.47832 218.927 5.91345C218.927 5.34857 219.369 4.90649 219.934 4.90649Z" fill="#FF8EDA"/>
</g>
<path d="M266.311 296C265.98 296 265.687 295.741 265.633 295.379L265.397 293.795C264.752 289.458 261.761 286.005 257.776 285.001L245.453 281.894C245.085 281.801 244.854 281.404 244.941 281.006C245.028 280.609 245.396 280.363 245.769 280.456L258.091 283.563C262.622 284.706 266.022 288.63 266.756 293.562L266.991 295.146C267.05 295.547 266.796 295.927 266.42 295.99C266.383 295.996 266.346 296 266.311 296Z" fill="#FF40C1"/>
<path d="M192.689 296C192.652 296 192.617 295.996 192.58 295.99C192.206 295.927 191.949 295.547 192.008 295.146L192.244 293.562C192.978 288.632 196.378 284.706 200.909 283.563L213.229 280.456C213.598 280.363 213.969 280.609 214.057 281.006C214.144 281.404 213.915 281.799 213.545 281.894L201.224 285.001C197.239 286.005 194.248 289.458 193.603 293.795L193.367 295.379C193.313 295.743 193.02 296 192.689 296Z" fill="#FF40C1"/>
<path d="M229.5 295.65C229.349 295.65 229.198 295.597 229.072 295.49L212.96 281.754C212.667 281.503 212.614 281.046 212.842 280.728L216.025 276.28C216.995 274.925 218.81 274.668 220.073 275.709L229.5 283.47L238.927 275.709C240.19 274.668 242.005 274.925 242.975 276.28L246.158 280.728C246.386 281.048 246.335 281.505 246.04 281.754L229.928 295.49C229.802 295.597 229.651 295.65 229.5 295.65ZM214.344 281.05L229.5 293.971L244.655 281.05L241.884 277.178C241.377 276.468 240.426 276.333 239.764 276.879L229.918 284.985C229.671 285.189 229.329 285.189 229.082 284.985L219.236 276.879C218.574 276.335 217.623 276.47 217.116 277.178L214.344 281.05Z" fill="#FF40C1"/>
<path d="M229.5 295.65C229.12 295.65 228.812 295.32 228.812 294.912V287.704C228.812 287.297 229.12 286.966 229.5 286.966C229.88 286.966 230.187 287.297 230.187 287.704V294.912C230.187 295.32 229.88 295.65 229.5 295.65Z" fill="#FF40C1"/>
<path d="M201.762 292.15C201.205 292.15 200.651 292.009 200.151 291.738L194.893 288.879C194.554 288.695 194.419 288.25 194.591 287.888C194.762 287.524 195.177 287.38 195.514 287.564L200.772 290.423C201.209 290.661 201.716 290.734 202.195 290.629L211.525 288.576C211.899 288.493 212.26 288.752 212.336 289.15C212.411 289.549 212.172 289.939 211.801 290.02L202.471 292.073C202.237 292.124 201.998 292.15 201.76 292.15H201.762Z" fill="#FF40C1"/>
<path d="M257.24 292.15C257.002 292.15 256.764 292.124 256.528 292.073L247.199 290.02C246.827 289.939 246.587 289.547 246.664 289.15C246.74 288.75 247.103 288.493 247.475 288.576L256.805 290.629C257.286 290.736 257.791 290.663 258.228 290.423L263.486 287.564C263.823 287.38 264.238 287.524 264.409 287.888C264.581 288.252 264.446 288.695 264.107 288.879L258.849 291.738C258.349 292.009 257.795 292.15 257.238 292.15H257.24Z" fill="#FF40C1"/>
<path d="M238.704 277.557C238.325 277.557 238.017 277.227 238.017 276.82V268.17C238.017 267.763 238.325 267.432 238.704 267.432C239.084 267.432 239.392 267.763 239.392 268.17V276.82C239.392 277.227 239.084 277.557 238.704 277.557Z" fill="#FF40C1"/>
<path d="M220.294 277.557C219.914 277.557 219.606 277.227 219.606 276.82V268.17C219.606 267.763 219.914 267.432 220.294 267.432C220.674 267.432 220.981 267.763 220.981 268.17V276.82C220.981 277.227 220.674 277.557 220.294 277.557Z" fill="#FF40C1"/>
<path d="M211.665 251.046H209.919C206.692 251.046 204.068 248.23 204.068 244.768V244.099C204.068 243.692 204.375 243.362 204.755 243.362C205.135 243.362 205.443 243.692 205.443 244.099V244.768C205.443 247.416 207.451 249.571 209.919 249.571H211.665C212.044 249.571 212.352 249.901 212.352 250.309C212.352 250.716 212.044 251.046 211.665 251.046Z" fill="#FF40C1"/>
<path d="M249.079 251.046H247.333C246.954 251.046 246.646 250.716 246.646 250.309C246.646 249.901 246.954 249.571 247.333 249.571H249.079C251.547 249.571 253.556 247.416 253.556 244.768V244.099C253.556 243.692 253.863 243.362 254.243 243.362C254.623 243.362 254.931 243.692 254.931 244.099V244.768C254.931 248.23 252.306 251.046 249.079 251.046Z" fill="#FF40C1"/>
<path d="M211.665 236.302C211.285 236.302 210.977 235.972 210.977 235.564V234.68C210.977 226.667 215.694 219.449 222.712 216.72C223.068 216.582 223.464 216.78 223.593 217.163C223.722 217.547 223.538 217.97 223.18 218.108C216.704 220.626 212.352 227.286 212.352 234.682V235.566C212.352 235.974 212.044 236.304 211.665 236.304V236.302Z" fill="#FF40C1"/>
<path d="M230.222 271.152H228.776C218.961 271.152 210.977 262.585 210.977 252.055V243.018C210.977 242.61 211.285 242.28 211.665 242.28C212.044 242.28 212.352 242.61 212.352 243.018V252.055C212.352 261.773 219.721 269.677 228.776 269.677H230.222C239.279 269.677 246.646 261.771 246.646 252.055V243.016C246.646 242.608 246.954 242.278 247.333 242.278C247.713 242.278 248.021 242.608 248.021 243.016V252.055C248.021 262.585 240.037 271.152 230.222 271.152Z" fill="#FF40C1"/>
<path d="M247.333 236.361C246.954 236.361 246.646 236.031 246.646 235.624V234.68C246.646 227.286 242.295 220.626 235.818 218.106C235.46 217.968 235.276 217.545 235.405 217.161C235.534 216.778 235.929 216.58 236.286 216.718C243.305 219.447 248.021 226.665 248.021 234.678V235.622C248.021 236.029 247.713 236.359 247.333 236.359V236.361Z" fill="#FF40C1"/>
<path d="M229.5 224.423C229.12 224.423 228.812 224.092 228.812 223.685V217.126C228.812 216.718 229.12 216.388 229.5 216.388C229.88 216.388 230.187 216.718 230.187 217.126V223.685C230.187 224.092 229.88 224.423 229.5 224.423Z" fill="#FF40C1"/>
<path d="M227.292 213.673C227.279 213.673 227.266 213.673 227.253 213.673C226.874 213.649 226.584 213.301 226.606 212.896L226.931 206.7C226.953 206.293 227.277 205.982 227.655 206.006C228.035 206.03 228.324 206.378 228.302 206.783L227.978 212.979C227.957 213.372 227.653 213.675 227.292 213.675V213.673Z" fill="#FF40C1"/>
<path d="M231.513 210.786C231.151 210.786 230.847 210.483 230.827 210.09L230.654 206.779C230.632 206.372 230.923 206.024 231.301 206.002C231.678 205.98 232.005 206.291 232.025 206.696L232.198 210.006C232.22 210.414 231.929 210.762 231.551 210.784C231.538 210.784 231.526 210.784 231.513 210.784V210.786Z" fill="#FF40C1"/>
<path d="M229.5 245.351C221.542 245.351 213.583 244.404 205.68 242.511C204.746 242.288 204.069 241.378 204.069 240.348V238.256C204.069 237.216 204.727 236.328 205.669 236.096C221.062 232.311 237.09 232.315 253.31 236.104C254.25 236.324 254.932 237.235 254.932 238.27V240.348C254.932 241.378 254.254 242.288 253.322 242.511C245.418 244.404 237.46 245.351 229.5 245.351ZM229.161 234.736C221.309 234.736 213.565 235.669 205.975 237.534C205.667 237.609 205.444 237.914 205.444 238.256V240.348C205.444 240.692 205.669 240.997 205.979 241.072C221.586 244.809 237.414 244.809 253.021 241.072C253.331 240.997 253.556 240.694 253.556 240.348V238.27C253.556 237.923 253.329 237.619 253.016 237.546C244.996 235.673 237.025 234.736 229.159 234.736H229.161Z" fill="white"/>
<path d="M247.333 240.043H240.741C240.361 240.043 240.053 239.713 240.053 239.306C240.053 238.898 240.361 238.568 240.741 238.568H247.333C247.713 238.568 248.021 238.898 248.021 239.306C248.021 239.713 247.713 240.043 247.333 240.043Z" fill="white"/>
<path d="M237.073 240.043H211.665C211.285 240.043 210.977 239.713 210.977 239.306C210.977 238.898 211.285 238.568 211.665 238.568H237.073C237.453 238.568 237.761 238.898 237.761 239.306C237.761 239.713 237.453 240.043 237.073 240.043Z" fill="white"/>
<path d="M229.5 224.423C229.102 224.423 228.704 224.316 228.343 224.1L223.468 221.217C222.476 220.63 221.936 219.431 222.122 218.233L223.739 207.898C223.912 206.797 224.791 206 225.83 206H233.17C234.209 206 235.09 206.799 235.261 207.898L236.878 218.233C237.066 219.431 236.524 220.632 235.532 221.217L230.657 224.1C230.294 224.316 229.896 224.423 229.498 224.423H229.5ZM225.83 207.473C225.466 207.473 225.156 207.754 225.095 208.142L223.479 218.476C223.388 219.058 223.65 219.641 224.131 219.926L229.006 222.809C229.316 222.993 229.686 222.993 229.996 222.809L234.871 219.926C235.352 219.641 235.615 219.06 235.523 218.476L233.907 208.142C233.846 207.754 233.536 207.473 233.171 207.473H225.832H225.83Z" fill="white"/>
</svg>
