<svg width="143" height="200" viewBox="0 0 143 200" fill="none" xmlns="http://www.w3.org/2000/svg">
<path d="M123.709 194.341H123.653L123.78 194.214L136.136 181.858L136.165 181.829V181.885L123.709 194.341ZM130.624 106.327L130.595 106.356V106.3L139.078 97.8163L139.107 97.7873V97.8441L130.624 106.327Z" fill="#3CCEA2" fill-opacity="0.35" stroke="#FF40C1"/>
<path opacity="0.2" d="M128.123 167.383V167.59L128.27 167.736L133.811 173.278V180.807L122.63 191.987H39.0028L14.584 167.665V151.104V150.897L14.4375 150.751L9.19043 145.503V96.0028L15.124 90.0692L15.2704 89.9228V89.7157V64.317V64.1099L15.124 63.9634L2.91431 51.7537V19.2351L18.9817 4.89954H49.7685L57.6633 12.7944L57.8098 12.9408H58.0169H101.448L129.692 41.1847V61.1789V61.3881L129.841 61.5349L136.753 68.3506V96.8617L128.272 105.247L128.123 105.393V105.602V167.383Z" fill="#3CCEA2" fill-opacity="0.35" stroke="#FF40C1"/>
<path d="M9.38718 66.8665V66.6594L9.24073 66.513L1.18096 58.4532C1.17744 58.4425 1.17374 58.4309 1.1699 58.4187C1.14375 58.335 1.11356 58.2234 1.09392 58.1056C1.07375 57.9845 1.06831 57.8776 1.07848 57.7963C1.08639 57.733 1.10029 57.7101 1.10276 57.7064C1.29964 57.5108 1.57064 57.5113 1.76717 57.7078L10.3485 66.2891V82.753C10.3485 83.0002 10.1481 83.2336 9.86782 83.2336C9.62059 83.2336 9.38718 83.0333 9.38718 82.753V66.8665ZM1.21249 58.5425C1.21254 58.5427 1.2125 58.5426 1.21238 58.5422L1.21249 58.5425Z" fill="#3CCEA2" fill-opacity="0.35" stroke="#FF40C1"/>
<path d="M135.821 109.955L135.674 110.102V110.309V119.135C135.674 119.382 135.474 119.615 135.194 119.615C134.947 119.615 134.713 119.415 134.713 119.135V109.731L141.45 102.995C141.46 102.991 141.472 102.988 141.484 102.984C141.568 102.958 141.679 102.928 141.797 102.908C141.918 102.888 142.025 102.882 142.107 102.892C142.17 102.9 142.193 102.914 142.196 102.917C142.392 103.114 142.392 103.385 142.195 103.581L135.821 109.955Z" fill="#3CCEA2" fill-opacity="0.35" stroke="#FF40C1"/>
<path d="M135.194 143.837C134.947 143.837 134.713 143.637 134.713 143.357V132.668C134.713 132.42 134.913 132.187 135.194 132.187C135.374 132.187 135.486 132.245 135.551 132.31C135.616 132.375 135.674 132.487 135.674 132.668V143.357C135.674 143.604 135.474 143.837 135.194 143.837Z" fill="#3CCEA2" fill-opacity="0.35" stroke="#FF40C1"/>
<path d="M36.6778 198.037L36.8242 198.184H37.0313H97.6352C97.8825 198.184 98.1159 198.384 98.1159 198.664C98.1159 198.845 98.0578 198.957 97.9926 199.022C97.9274 199.087 97.8158 199.145 97.6352 199.145H36.4539L27.3638 190.055C27.3603 190.044 27.3566 190.033 27.3528 190.02C27.3266 189.937 27.2964 189.825 27.2768 189.707C27.2566 189.586 27.2512 189.479 27.2613 189.398C27.2693 189.335 27.2832 189.312 27.2856 189.308C27.4825 189.112 27.7535 189.113 27.95 189.309L36.6778 198.037Z" fill="#3CCEA2" fill-opacity="0.35" stroke="#FF40C1"/>
<path d="M96.3607 8.11608H66.9413C66.6941 8.11608 66.4607 7.91574 66.4607 7.63543C66.4607 7.45486 66.5187 7.34324 66.5839 7.27802C66.6491 7.21279 66.7608 7.15479 66.9413 7.15479H96.3607C96.6079 7.15479 96.8413 7.35512 96.8413 7.63543C96.8413 7.816 96.7833 7.92762 96.7181 7.99284C96.6529 8.05807 96.5413 8.11608 96.3607 8.11608Z" fill="#3CCEA2" fill-opacity="0.35" stroke="#FF40C1"/>
<path d="M18.0069 1.93789H17.815L17.6724 2.06625L4.77783 13.6713V12.0782L17.509 0.87854H32.7123L33.8221 1.93789H18.0069Z" fill="#3CCEA2" fill-opacity="0.35" stroke="#FF40C1"/>
<path d="M132.654 60.1952V44.9463L137.048 49.4197V64.8284L132.654 60.1952Z" fill="#3CCEA2" fill-opacity="0.35" stroke="#FF40C1"/>
<path d="M4.38574 135.892V106.201L6.33095 104.255L6.42245 137.929L4.38574 135.892Z" fill="#3CCEA2" fill-opacity="0.35" stroke="#FF40C1"/>
<path d="M60.32 193.754L63.9092 190.242H127.104L123.419 193.85L60.32 193.754Z" fill="#3CCEA2" fill-opacity="0.35" stroke="#FF40C1"/>
<path d="M58.4463 10.9281L58.5931 11.0767H58.802H102.238L104.443 13.2147H55.9691L45.6125 2.85815L50.5486 2.93409L58.4463 10.9281Z" fill="#3CCEA2" fill-opacity="0.35" stroke="#FF40C1"/>
<mask id="path-13-inside-1_13_720" fill="white">
<path d="M9.76933 28.1306H0.55127V27.6403H9.57321L29.7745 7.43896H46.8377V7.92929H29.9706L9.76933 28.1306Z"/>
</mask>
<path d="M9.76933 28.1306H0.55127V27.6403H9.57321L29.7745 7.43896H46.8377V7.92929H29.9706L9.76933 28.1306Z" fill="#3CCEA2" fill-opacity="0.35"/>
<path d="M9.76933 28.1306V29.1306H10.1835L10.4764 28.8377L9.76933 28.1306ZM0.55127 28.1306H-0.44873V29.1306H0.55127V28.1306ZM0.55127 27.6403V26.6403H-0.44873V27.6403H0.55127ZM9.5732 27.6403V28.6403H9.98742L10.2803 28.3474L9.5732 27.6403ZM29.7745 7.43896V6.43896H29.3603L29.0674 6.73186L29.7745 7.43896ZM46.8377 7.43896H47.8377V6.43896H46.8377V7.43896ZM46.8377 7.92929V8.92929H47.8377V7.92929H46.8377ZM29.9706 7.92929V6.92929H29.5564L29.2635 7.22218L29.9706 7.92929ZM9.76933 27.1306H0.55127V29.1306H9.76933V27.1306ZM1.55127 28.1306V27.6403H-0.44873V28.1306H1.55127ZM0.55127 28.6403H9.5732V26.6403H0.55127V28.6403ZM10.2803 28.3474L30.4816 8.14607L29.0674 6.73186L8.8661 26.9331L10.2803 28.3474ZM29.7745 8.43896H46.8377V6.43896H29.7745V8.43896ZM45.8377 7.43896V7.92929H47.8377V7.43896H45.8377ZM46.8377 6.92929H29.9706V8.92929H46.8377V6.92929ZM29.2635 7.22218L9.06223 27.4235L10.4764 28.8377L30.6777 8.63639L29.2635 7.22218Z" fill="#FF40C1" mask="url(#path-13-inside-1_13_720)"/>
<mask id="path-15-inside-2_13_720" fill="white">
<path d="M11.2405 63.4343L10.8482 63.042L18.3011 55.6872V36.7607L9.47534 28.033L9.8676 27.6407L18.7915 36.5646V55.8833H18.6934L11.2405 63.4343Z"/>
</mask>
<path d="M11.2405 63.4343L10.8482 63.042L18.3011 55.6872V36.7607L9.47534 28.033L9.8676 27.6407L18.7915 36.5646V55.8833H18.6934L11.2405 63.4343Z" fill="#3CCEA2" fill-opacity="0.35"/>
<path d="M11.2405 63.4343L10.5334 64.1414L11.2451 64.8531L11.9522 64.1368L11.2405 63.4343ZM10.8482 63.042L10.1458 62.3303L9.42933 63.0373L10.1411 63.7491L10.8482 63.042ZM18.3011 55.6872L19.0036 56.399L19.3011 56.1053V55.6872H18.3011ZM18.3011 36.7607H19.3011V36.3433L19.0043 36.0497L18.3011 36.7607ZM9.47534 28.033L8.76824 27.3259L8.05717 28.037L8.7722 28.7441L9.47534 28.033ZM9.8676 27.6407L10.5747 26.9336L9.8676 26.2265L9.16049 26.9336L9.8676 27.6407ZM18.7915 36.5646H19.7915V36.1504L19.4986 35.8575L18.7915 36.5646ZM18.7915 55.8833V56.8833H19.7915V55.8833H18.7915ZM18.6934 55.8833V54.8833H18.2754L17.9817 55.1809L18.6934 55.8833ZM11.9476 62.7272L11.5554 62.3349L10.1411 63.7491L10.5334 64.1414L11.9476 62.7272ZM11.5507 63.7538L19.0036 56.399L17.5987 54.9754L10.1458 62.3303L11.5507 63.7538ZM19.3011 55.6872V36.7607H17.3011V55.6872H19.3011ZM19.0043 36.0497L10.1785 27.322L8.7722 28.7441L17.598 37.4718L19.0043 36.0497ZM10.1824 28.7401L10.5747 28.3479L9.16049 26.9336L8.76824 27.3259L10.1824 28.7401ZM9.16049 28.3479L18.0844 37.2717L19.4986 35.8575L10.5747 26.9336L9.16049 28.3479ZM17.7915 36.5646V55.8833H19.7915V36.5646H17.7915ZM18.7915 54.8833H18.6934V56.8833H18.7915V54.8833ZM17.9817 55.1809L10.5288 62.7318L11.9522 64.1368L19.4051 56.5858L17.9817 55.1809Z" fill="#FF40C1" mask="url(#path-15-inside-2_13_720)"/>
<path d="M114.983 149.537C114.591 149.537 114.244 149.251 114.18 148.852L113.901 147.105C113.138 142.322 109.598 138.514 104.883 137.406L90.2998 133.979C89.8636 133.877 89.5909 133.438 89.6935 133C89.796 132.561 90.2322 132.291 90.6728 132.394L105.255 135.82C110.617 137.081 114.641 141.408 115.509 146.848L115.788 148.595C115.858 149.037 115.557 149.456 115.112 149.526C115.068 149.532 115.025 149.537 114.983 149.537V149.537Z" fill="#FF40C1"/>
<path d="M27.8578 149.537C27.8141 149.537 27.7727 149.532 27.7291 149.526C27.2863 149.456 26.9832 149.037 27.053 148.595L27.3321 146.848C28.2002 141.41 32.2243 137.081 37.5854 135.82L52.1659 132.394C52.6021 132.291 53.0405 132.561 53.1452 133C53.2477 133.438 52.9773 133.874 52.5389 133.979L37.9584 137.406C33.2429 138.514 29.703 142.322 28.9396 147.105L28.6604 148.852C28.5972 149.253 28.2504 149.537 27.8578 149.537V149.537Z" fill="#FF40C1"/>
<path d="M71.4203 149.151C71.2415 149.151 71.0626 149.092 70.9143 148.974L51.8473 133.824C51.5005 133.547 51.4372 133.044 51.7077 132.692L55.4744 127.787C56.6217 126.293 58.77 126.01 60.2641 127.157L71.4203 135.718L82.5765 127.157C84.0706 126.01 86.2189 126.293 87.3662 127.787L91.1329 132.692C91.4033 133.046 91.3423 133.55 90.9933 133.824L71.9263 148.974C71.778 149.092 71.5992 149.151 71.4203 149.151ZM53.4853 133.048L71.4203 147.299L89.3553 133.048L86.075 128.777C85.4752 127.994 84.3497 127.846 83.5667 128.448L71.9154 137.388C71.6231 137.613 71.2175 137.613 70.9252 137.388L59.2739 128.448C58.4908 127.848 57.3654 127.997 56.7656 128.777L53.4853 133.048V133.048Z" fill="#FF40C1"/>
<path d="M71.4205 149.151C70.9712 149.151 70.6069 148.786 70.6069 148.337V140.387C70.6069 139.938 70.9712 139.573 71.4205 139.573C71.8698 139.573 72.234 139.938 72.234 140.387V148.337C72.234 148.786 71.8698 149.151 71.4205 149.151Z" fill="#FF40C1"/>
<path d="M38.5952 145.29C37.9365 145.29 37.28 145.135 36.6889 144.836L30.4663 141.683C30.065 141.48 29.9057 140.989 30.1086 140.59C30.3114 140.189 30.8022 140.029 31.2013 140.232L37.4239 143.386C37.9408 143.648 38.5406 143.729 39.1077 143.613L50.1483 141.349C50.5911 141.257 51.0186 141.543 51.108 141.981C51.1974 142.422 50.9139 142.852 50.4755 142.941L39.4349 145.205C39.1579 145.262 38.8743 145.29 38.593 145.29H38.5952Z" fill="#FF40C1"/>
<path d="M104.248 145.29C103.966 145.29 103.685 145.262 103.406 145.205L92.3653 142.941C91.9247 142.852 91.6412 142.42 91.7328 141.981C91.8222 141.541 92.2519 141.257 92.6925 141.349L103.733 143.613C104.302 143.731 104.9 143.65 105.417 143.386L111.639 140.232C112.039 140.029 112.529 140.189 112.732 140.59C112.935 140.991 112.776 141.48 112.375 141.683L106.152 144.836C105.561 145.135 104.904 145.29 104.246 145.29H104.248Z" fill="#FF40C1"/>
<path d="M82.3126 129.196C81.8633 129.196 81.499 128.832 81.499 128.382V118.842C81.499 118.393 81.8633 118.029 82.3126 118.029C82.7619 118.029 83.1261 118.393 83.1261 118.842V128.382C83.1261 128.832 82.7619 129.196 82.3126 129.196Z" fill="#FF40C1"/>
<path d="M60.5259 129.196C60.0766 129.196 59.7124 128.832 59.7124 128.382V118.842C59.7124 118.393 60.0766 118.029 60.5259 118.029C60.9752 118.029 61.3395 118.393 61.3395 118.842V128.382C61.3395 128.832 60.9752 129.196 60.5259 129.196Z" fill="#FF40C1"/>
<path d="M50.3142 99.9564H48.2487C44.4296 99.9564 41.3237 96.8505 41.3237 93.0315V92.2943C41.3237 91.845 41.688 91.4807 42.1373 91.4807C42.5866 91.4807 42.9508 91.845 42.9508 92.2943V93.0315C42.9508 95.9519 45.3282 98.3293 48.2487 98.3293H50.3142C50.7635 98.3293 51.1277 98.6935 51.1277 99.1428C51.1277 99.5922 50.7635 99.9564 50.3142 99.9564V99.9564Z" fill="#FF40C1"/>
<path d="M94.59 99.9564H92.5245C92.0752 99.9564 91.7109 99.5922 91.7109 99.1428C91.7109 98.6935 92.0752 98.3293 92.5245 98.3293H94.59C97.5104 98.3293 99.8878 95.9519 99.8878 93.0315V92.2943C99.8878 91.845 100.252 91.4807 100.701 91.4807C101.151 91.4807 101.515 91.845 101.515 92.2943V93.0315C101.515 96.8505 98.4091 99.9564 94.59 99.9564V99.9564Z" fill="#FF40C1"/>
<path d="M50.3143 83.6942C49.865 83.6942 49.5007 83.33 49.5007 82.8807V81.9057C49.5007 73.068 55.0821 65.1071 63.3877 62.0972C63.8086 61.9445 64.2775 62.1626 64.4302 62.5857C64.5829 63.0089 64.3648 63.4756 63.9417 63.6283C56.2773 66.4048 51.1278 73.7507 51.1278 81.9079V82.8829C51.1278 83.3322 50.7636 83.6964 50.3143 83.6964V83.6942Z" fill="#FF40C1"/>
<path d="M72.2756 122.131H70.5634C58.9492 122.131 49.5007 112.683 49.5007 101.069V91.1011C49.5007 90.6518 49.865 90.2876 50.3143 90.2876C50.7636 90.2876 51.1278 90.6518 51.1278 91.1011V101.069C51.1278 111.786 59.8478 120.504 70.5634 120.504H72.2756C82.9934 120.504 91.7112 111.784 91.7112 101.069V91.0989C91.7112 90.6496 92.0754 90.2854 92.5247 90.2854C92.974 90.2854 93.3383 90.6496 93.3383 91.0989V101.069C93.3383 112.683 83.8898 122.131 72.2756 122.131Z" fill="#FF40C1"/>
<path d="M92.5245 83.7596C92.0752 83.7596 91.711 83.3954 91.711 82.9461V81.9057C91.711 73.7507 86.5614 66.4048 78.8971 63.6261C78.474 63.4734 78.2559 63.0067 78.4086 62.5835C78.5612 62.1604 79.028 61.9423 79.4511 62.095C87.7567 65.1049 93.3381 73.0658 93.3381 81.9035V82.9439C93.3381 83.3932 92.9738 83.7575 92.5245 83.7575V83.7596Z" fill="#FF40C1"/>
<path d="M71.4205 70.5924C70.9712 70.5924 70.6069 70.2282 70.6069 69.7789V62.5443C70.6069 62.095 70.9712 61.7307 71.4205 61.7307C71.8698 61.7307 72.234 62.095 72.234 62.5443V69.7789C72.234 70.2282 71.8698 70.5924 71.4205 70.5924Z" fill="#FF40C1"/>
<path d="M68.8074 58.7361C68.7921 58.7361 68.7769 58.7361 68.7616 58.7361C68.3123 58.71 67.9699 58.3261 67.996 57.879L68.3799 51.0457C68.4061 50.5963 68.79 50.2539 69.2371 50.2801C69.6864 50.3063 70.0288 50.6901 70.0026 51.1373L69.6188 57.9706C69.5948 58.4046 69.2349 58.7383 68.8074 58.7383V58.7361Z" fill="#FF40C1"/>
<path d="M73.8022 55.5518C73.3747 55.5518 73.0148 55.2181 72.9909 54.784L72.7858 51.1329C72.7596 50.6836 73.1043 50.2997 73.5514 50.2757C73.9985 50.2517 74.3846 50.5942 74.4086 51.0413L74.6136 54.6924C74.6397 55.1417 74.2951 55.5256 73.848 55.5496C73.8327 55.5496 73.8175 55.5496 73.8022 55.5496V55.5518Z" fill="#FF40C1"/>
<path d="M71.4203 93.6748C62.0023 93.6748 52.5844 92.63 43.2319 90.5428C42.1261 90.2963 41.3257 89.293 41.3257 88.1567V85.8491C41.3257 84.7018 42.1043 83.7225 43.2189 83.4673C61.4353 79.2927 80.4019 79.2971 99.5976 83.4761C100.71 83.7182 101.517 84.7236 101.517 85.8643V88.1567C101.517 89.293 100.714 90.2963 99.6107 90.5428C90.2582 92.63 80.8403 93.6748 71.4203 93.6748V93.6748ZM71.0189 81.9667C61.7275 81.9667 52.5626 82.9962 43.5809 85.053C43.2167 85.1359 42.9528 85.4717 42.9528 85.8491V88.1567C42.9528 88.5362 43.2189 88.872 43.5853 88.9549C62.0547 93.0772 80.7858 93.0772 99.2552 88.9549C99.6216 88.872 99.8877 88.5383 99.8877 88.1567V85.8643C99.8877 85.4826 99.6194 85.1468 99.2486 85.0661C89.7588 83.0006 80.3256 81.9667 71.0167 81.9667H71.0189Z" fill="white"/>
<path d="M92.5244 87.8207H84.7227C84.2734 87.8207 83.9092 87.4564 83.9092 87.0071C83.9092 86.5578 84.2734 86.1936 84.7227 86.1936H92.5244C92.9737 86.1936 93.338 86.5578 93.338 87.0071C93.338 87.4564 92.9737 87.8207 92.5244 87.8207Z" fill="white"/>
<path d="M80.3826 87.8207H50.3143C49.865 87.8207 49.5007 87.4564 49.5007 87.0071C49.5007 86.5578 49.865 86.1936 50.3143 86.1936H80.3826C80.8319 86.1936 81.1962 86.5578 81.1962 87.0071C81.1962 87.4564 80.8319 87.8207 80.3826 87.8207Z" fill="white"/>
<path d="M71.4204 70.5925C70.9493 70.5925 70.4782 70.4747 70.0507 70.237L64.2817 67.057C63.1083 66.4092 62.4693 65.0875 62.6895 63.7657L64.6024 52.3674C64.8074 51.1525 65.8478 50.2736 67.0779 50.2736H75.7629C76.9931 50.2736 78.0356 51.1547 78.2385 52.3674L80.1513 63.7657C80.3737 65.0875 79.7325 66.4114 78.5591 67.057L72.7901 70.237C72.3604 70.4747 71.8894 70.5925 71.4182 70.5925H71.4204ZM67.0779 51.8985C66.646 51.8985 66.2796 52.2082 66.2076 52.6357L64.2948 64.034C64.1879 64.6752 64.4977 65.3187 65.0669 65.6327L70.8359 68.8127C71.2023 69.0156 71.6407 69.0156 72.0071 68.8127L77.7761 65.6327C78.3453 65.3187 78.6572 64.6774 78.5482 64.034L76.6354 52.6357C76.5634 52.2082 76.197 51.8985 75.7651 51.8985H67.0801H67.0779Z" fill="white"/>
</svg>
