<svg width="144" height="200" viewBox="0 0 144 200" fill="none" xmlns="http://www.w3.org/2000/svg">
<path d="M19.5693 193.962H19.6261L19.499 193.835L7.14285 181.479L7.11382 181.45V181.507L19.5693 193.962ZM12.6551 105.949L12.6841 105.978V105.921L4.20091 97.4378L4.17189 97.4088V97.4655L12.6551 105.949Z" fill="#3CCEA2" fill-opacity="0.35" stroke="#29B149"/>
<path opacity="0.2" d="M15.1555 167.004V167.211L15.009 167.358L9.46774 172.899V180.428L20.6484 191.609H104.276L128.695 167.287V150.726V150.518L128.841 150.372L134.088 145.125V95.6242L128.155 89.6907L128.008 89.5442V89.3371V63.9384V63.7313L128.155 63.5849L140.365 51.3752V18.8566L124.297 4.521H93.5103L85.6155 12.4158L85.469 12.5623H85.2619H41.8303L13.5864 40.8062V60.8004V61.0095L13.4375 61.1564L6.5258 67.9721V96.4832L15.007 104.868L15.1555 105.015V105.224V167.004Z" fill="#3CCEA2" fill-opacity="0.35" stroke="#29B149"/>
<path d="M133.892 66.4881V66.281L134.038 66.1345L142.098 58.0748C142.102 58.064 142.105 58.0525 142.109 58.0402C142.135 57.9566 142.165 57.845 142.185 57.7272C142.205 57.6061 142.211 57.4992 142.201 57.4179C142.193 57.3545 142.179 57.3317 142.176 57.328C141.979 57.1324 141.708 57.1329 141.512 57.3294L132.931 65.9107V82.3745C132.931 82.6218 133.131 82.8552 133.411 82.8552C133.658 82.8552 133.892 82.6549 133.892 82.3745V66.4881ZM142.067 58.1641C142.067 58.1642 142.067 58.1641 142.067 58.1638L142.067 58.1641Z" fill="#3CCEA2" fill-opacity="0.35" stroke="#29B149"/>
<path d="M7.45794 109.577L7.60439 109.723V109.93V118.756C7.60439 119.003 7.80472 119.237 8.08503 119.237C8.33226 119.237 8.56567 119.036 8.56567 118.756V109.353L1.82912 102.616C1.8184 102.613 1.80687 102.609 1.7946 102.605C1.71091 102.579 1.59933 102.549 1.48154 102.529C1.36049 102.509 1.25359 102.504 1.17221 102.514C1.10891 102.522 1.08602 102.536 1.08237 102.538C0.886755 102.735 0.887214 103.006 1.08375 103.202L7.45794 109.577Z" fill="#3CCEA2" fill-opacity="0.35" stroke="#29B149"/>
<path d="M8.08503 143.459C8.33226 143.459 8.56567 143.258 8.56567 142.978V132.289C8.56567 132.042 8.36535 131.808 8.08503 131.808C7.90446 131.808 7.79284 131.866 7.72762 131.932C7.66239 131.997 7.60439 132.108 7.60439 132.289V142.978C7.60439 143.225 7.80472 143.459 8.08503 143.459Z" fill="#3CCEA2" fill-opacity="0.35" stroke="#29B149"/>
<path d="M106.601 197.659L106.455 197.805H106.247H45.6436C45.3964 197.805 45.163 198.006 45.163 198.286C45.163 198.466 45.221 198.578 45.2862 198.643C45.3514 198.709 45.463 198.767 45.6436 198.767H106.825L115.915 189.676C115.919 189.666 115.922 189.654 115.926 189.642C115.952 189.558 115.982 189.447 116.002 189.329C116.022 189.208 116.028 189.101 116.017 189.02C116.01 188.956 115.996 188.933 115.993 188.93C115.796 188.734 115.525 188.735 115.329 188.931L106.601 197.659ZM115.883 189.766C115.883 189.766 115.883 189.766 115.884 189.766L115.883 189.766Z" fill="#3CCEA2" fill-opacity="0.35" stroke="#29B149"/>
<path d="M46.9181 7.73766H76.3375C76.5847 7.73766 76.8181 7.53732 76.8181 7.25701C76.8181 7.07644 76.7601 6.96482 76.6949 6.8996C76.6297 6.83437 76.518 6.77637 76.3375 6.77637H46.9181C46.6709 6.77637 46.4375 6.9767 46.4375 7.25701C46.4375 7.43758 46.4955 7.5492 46.5607 7.61443C46.6259 7.67965 46.7375 7.73766 46.9181 7.73766Z" fill="#3CCEA2" fill-opacity="0.35" stroke="#29B149"/>
<path d="M125.272 1.55935H125.464L125.607 1.68771L138.501 13.2928V11.6996L125.77 0.5H110.567L109.457 1.55935H125.272Z" fill="#3CCEA2" fill-opacity="0.35" stroke="#29B149"/>
<path d="M10.6245 59.8167V44.5677L6.23096 49.0412V64.4499L10.6245 59.8167Z" fill="#3CCEA2" fill-opacity="0.35" stroke="#29B149"/>
<path d="M138.893 135.514V105.822L136.948 103.877L136.857 137.551L138.893 135.514Z" fill="#3CCEA2" fill-opacity="0.35" stroke="#29B149"/>
<path d="M82.9591 193.376L79.3699 189.863H16.1746L19.8601 193.472L82.9591 193.376Z" fill="#3CCEA2" fill-opacity="0.35" stroke="#29B149"/>
<path d="M84.8328 10.5498L84.686 10.6984H84.4771H41.041L38.8361 12.8364H87.31L97.6666 2.47986L92.7304 2.5558L84.8328 10.5498Z" fill="#3CCEA2" fill-opacity="0.35" stroke="#29B149"/>
<mask id="path-13-inside-1_13_600" fill="white">
<path d="M133.51 27.752H142.728V27.2617H133.706L113.505 7.06042H96.4413V7.55075H113.308L133.51 27.752Z"/>
</mask>
<path d="M133.51 27.752H142.728V27.2617H133.706L113.505 7.06042H96.4413V7.55075H113.308L133.51 27.752Z" fill="#3CCEA2" fill-opacity="0.35"/>
<path d="M133.51 27.752V28.752H133.096L132.803 28.4591L133.51 27.752ZM142.728 27.752H143.728V28.752H142.728V27.752ZM142.728 27.2617V26.2617H143.728V27.2617H142.728ZM133.706 27.2617V28.2617H133.292L132.999 27.9688L133.706 27.2617ZM113.505 7.06042V6.06042H113.919L114.212 6.35332L113.505 7.06042ZM96.4413 7.06042H95.4413V6.06042H96.4413V7.06042ZM96.4413 7.55075V8.55075H95.4413V7.55075H96.4413ZM113.308 7.55075V6.55075H113.723L114.016 6.84364L113.308 7.55075ZM133.51 26.752H142.728V28.752H133.51V26.752ZM141.728 27.752V27.2617H143.728V27.752H141.728ZM142.728 28.2617H133.706V26.2617H142.728V28.2617ZM132.999 27.9688L112.797 7.76753L114.212 6.35332L134.413 26.5546L132.999 27.9688ZM113.505 8.06042H96.4413V6.06042H113.505V8.06042ZM97.4413 7.06042V7.55075H95.4413V7.06042H97.4413ZM96.4413 6.55075H113.308V8.55075H96.4413V6.55075ZM114.016 6.84364L134.217 27.0449L132.803 28.4591L112.601 8.25785L114.016 6.84364Z" fill="#29B149" mask="url(#path-13-inside-1_13_600)"/>
<mask id="path-15-inside-2_13_600" fill="white">
<path d="M132.038 63.0559L132.431 62.6636L124.978 55.3088V36.3823L133.803 27.6546L133.411 27.2623L124.487 36.1862V55.5049H124.585L132.038 63.0559Z"/>
</mask>
<path d="M132.038 63.0559L132.431 62.6636L124.978 55.3088V36.3823L133.803 27.6546L133.411 27.2623L124.487 36.1862V55.5049H124.585L132.038 63.0559Z" fill="#3CCEA2" fill-opacity="0.35"/>
<path d="M132.038 63.0559L132.745 63.763L132.034 64.4747L131.327 63.7583L132.038 63.0559ZM132.431 62.6636L133.133 61.9518L133.849 62.6589L133.138 63.3707L132.431 62.6636ZM124.978 55.3088L124.275 56.0206L123.978 55.7269V55.3088H124.978ZM124.978 36.3823H123.978V35.9648L124.275 35.6713L124.978 36.3823ZM133.803 27.6546L134.511 26.9475L135.222 27.6585L134.507 28.3656L133.803 27.6546ZM133.411 27.2623L132.704 26.5552L133.411 25.8481L134.118 26.5552L133.411 27.2623ZM124.487 36.1862H123.487V35.772L123.78 35.4791L124.487 36.1862ZM124.487 55.5049V56.5049H123.487V55.5049H124.487ZM124.585 55.5049V54.5049H125.003L125.297 54.8024L124.585 55.5049ZM131.331 62.3488L131.723 61.9565L133.138 63.3707L132.745 63.763L131.331 62.3488ZM131.728 63.3754L124.275 56.0206L125.68 54.597L133.133 61.9518L131.728 63.3754ZM123.978 55.3088V36.3823H125.978V55.3088H123.978ZM124.275 35.6713L133.1 26.9435L134.507 28.3656L125.681 37.0934L124.275 35.6713ZM133.096 28.3617L132.704 27.9694L134.118 26.5552L134.511 26.9475L133.096 28.3617ZM134.118 27.9694L125.194 36.8933L123.78 35.4791L132.704 26.5552L134.118 27.9694ZM125.487 36.1862V55.5049H123.487V36.1862H125.487ZM124.487 54.5049H124.585V56.5049H124.487V54.5049ZM125.297 54.8024L132.75 62.3534L131.327 63.7583L123.874 56.2074L125.297 54.8024Z" fill="#29B149" mask="url(#path-15-inside-2_13_600)"/>
<path d="M48.0863 94.9302C47.8849 94.9302 47.6813 94.8538 47.5266 94.6991L43.2266 90.3991C42.917 90.0895 42.917 89.5891 43.2266 89.2795C43.5361 88.97 44.0365 88.97 44.3461 89.2795L48.6461 93.5795C48.9556 93.8891 48.9556 94.3895 48.6461 94.6991C48.4913 94.8538 48.2899 94.9302 48.0863 94.9302Z" fill="#30FF5E"/>
<path d="M99.5419 105.894C99.3404 105.894 99.1369 105.818 98.9821 105.663L94.6821 101.363C94.3726 101.054 94.3726 100.553 94.6821 100.244C94.9917 99.9341 95.4921 99.9341 95.8016 100.244L100.102 104.544C100.411 104.853 100.411 105.354 100.102 105.663C99.9468 105.818 99.7454 105.894 99.5419 105.894Z" fill="#30FF5E"/>
<path d="M51.8114 105.606H49.8841C46.305 105.606 43.3938 102.695 43.3938 99.1156V96.4058C43.3938 92.8267 46.305 89.9155 49.8841 89.9155H51.8114C52.2482 89.9155 52.6023 90.2696 52.6023 90.7064V104.813C52.6023 105.25 52.2482 105.604 51.8114 105.604V105.606ZM49.8841 91.4994C47.1786 91.4994 44.9777 93.7003 44.9777 96.4079V99.1177C44.9777 101.823 47.1786 104.026 49.8841 104.026H51.0206V91.5015H49.8841V91.4994Z" fill="white"/>
<path d="M93.1006 105.606H91.1732C90.7364 105.606 90.3823 105.252 90.3823 104.815V90.7085C90.3823 90.2717 90.7364 89.9176 91.1732 89.9176H93.1006C96.6796 89.9176 99.5908 92.8288 99.5908 96.4079V99.1176C99.5908 102.697 96.6796 105.608 93.1006 105.608V105.606ZM91.9641 104.024H93.1006C95.8061 104.024 98.007 101.823 98.007 99.1155V96.4058C98.007 93.7002 95.8061 91.4972 93.1006 91.4972H91.9641V104.022V104.024Z" fill="white"/>
<path d="M81.6507 129.427C81.214 129.427 80.8599 129.073 80.8599 128.637V122.131C80.8599 121.695 81.214 121.341 81.6507 121.341C82.0875 121.341 82.4416 121.695 82.4416 122.131V128.637C82.4416 129.073 82.0875 129.427 81.6507 129.427Z" fill="#30FF5E"/>
<path d="M61.3338 129.427C60.8971 129.427 60.543 129.073 60.543 128.637V122.131C60.543 121.695 60.8971 121.341 61.3338 121.341C61.7706 121.341 62.1247 121.695 62.1247 122.131V128.637C62.1247 129.073 61.7706 129.427 61.3338 129.427Z" fill="#30FF5E"/>
<path d="M72.7072 125.229H70.2773C59.6588 125.229 51.0186 116.591 51.0186 105.971V87.439C51.0186 82.3693 52.9714 77.5838 56.5208 73.9623C56.8261 73.6506 57.3265 73.6464 57.6403 73.9517C57.952 74.257 57.9583 74.7574 57.6509 75.0712C54.3941 78.3937 52.6024 82.787 52.6024 87.4411V105.973C52.6024 115.72 60.5324 123.648 70.2773 123.648H72.7072C82.4543 123.648 90.3821 115.718 90.3821 105.973V87.4411C90.3821 82.7892 88.5883 78.3959 85.3337 75.0733C85.0283 74.7617 85.0326 74.2613 85.3443 73.9538C85.656 73.6485 86.1585 73.6527 86.4638 73.9644C90.0111 77.5859 91.9639 82.3715 91.9639 87.439V105.971C91.9639 116.589 83.3257 125.229 72.7072 125.229Z" fill="#30FF5E"/>
<path d="M66.3759 82.6556C66.2975 82.6556 66.219 82.645 66.1406 82.6196C61.0073 81.0251 57.8057 78.4701 56.3532 74.8105C55.7998 73.2118 56.9363 66.7109 60.8313 61.866C64.2472 57.619 68.914 55.7044 74.3271 56.3341C74.7618 56.385 75.0714 56.7772 75.0205 57.2119C74.9696 57.6466 74.5773 57.9561 74.1426 57.9052C69.2278 57.3349 65.1631 58.9993 62.0611 62.8562C58.429 67.3746 57.5152 73.339 57.8332 74.2592C59.1033 77.4566 61.8957 79.6427 66.6071 81.1078C67.0248 81.2372 67.258 81.6803 67.1287 82.098C67.0226 82.4373 66.711 82.6535 66.3738 82.6535L66.3759 82.6556Z" fill="white"/>
<path d="M71.4923 87.5238C71.0555 87.5238 70.7014 87.1697 70.7014 86.7329C70.7014 86.2961 71.0555 85.942 71.4923 85.942C74.2423 85.942 75.7202 83.5249 76.1506 81.4555C76.3733 80.3847 76.2524 78.5782 76.1124 76.4876C75.735 70.8666 75.2177 63.1678 80.987 60.6785C81.3878 60.5047 81.8542 60.6912 82.026 61.092C82.1999 61.4927 82.0133 61.9592 81.6125 62.1309C76.8715 64.177 77.3253 70.943 77.69 76.3815C77.8384 78.5888 77.9656 80.495 77.6984 81.7777C77.1026 84.638 74.9526 87.5238 71.4923 87.5238Z" fill="white"/>
<path d="M71.4923 87.5239C68.4433 87.5239 65.7378 84.9498 65.5851 81.905C65.1165 72.5333 66.4502 67.7541 66.6134 67.2113C66.7746 66.4034 68.7634 57.3942 77.2277 54.9241C83.7434 53.0222 89.3559 55.804 92.1187 57.6317C92.6975 58.0134 93.0134 58.6537 92.9668 59.3428C92.9201 60.0319 92.5194 60.6214 91.8982 60.9203C90.8719 61.4122 89.3877 62.3918 88.141 64.2556C86.1267 67.2622 86.468 70.0758 86.7161 72.1304C86.8561 73.2923 86.9684 74.2104 86.5953 74.8974C84.2375 78.979 81.0464 81.4916 77.1005 82.3885C76.6764 82.4839 76.2503 82.2188 76.1527 81.7927C76.0552 81.3665 76.3223 80.9424 76.7485 80.847C80.247 80.0519 83.0946 77.7916 85.2128 74.1256C85.3337 73.9009 85.2319 73.0612 85.1429 72.3212C84.8799 70.15 84.4834 66.8699 86.8243 63.3756C88.2703 61.215 90.009 60.0743 91.2112 59.4955C91.3533 59.4276 91.3829 59.3046 91.3872 59.2368C91.3914 59.1689 91.3787 59.0417 91.2451 58.9527C88.7092 57.2755 83.5717 54.7227 77.6688 56.4443C69.936 58.7004 68.1719 67.4636 68.157 67.5527C68.1507 67.5823 68.1443 67.6141 68.1337 67.6438C68.1189 67.6884 66.6919 72.3912 67.1626 81.8287C67.275 84.0593 69.2554 85.9442 71.4902 85.9442C71.9269 85.9442 72.281 86.2983 72.281 86.7351C72.281 87.1719 71.9269 87.526 71.4902 87.526L71.4923 87.5239Z" fill="white"/>
<path d="M61.6839 88.3568C61.5779 88.3568 61.4676 88.3356 61.3637 88.289C57.4687 86.5631 54.4112 83.9742 52.522 80.8022C52.2994 80.4269 52.4224 79.9413 52.7977 79.7187C53.173 79.4961 53.6585 79.619 53.8811 79.9943C55.5774 82.844 58.4631 85.276 62.0062 86.8451C62.4048 87.021 62.585 87.4896 62.409 87.8882C62.2776 88.183 61.9892 88.359 61.686 88.359L61.6839 88.3568Z" fill="#30FF5E"/>
<path d="M81.3008 88.6582C80.987 88.6582 80.6923 88.4716 80.5672 88.1621C80.4039 87.7571 80.599 87.297 81.004 87.1337C84.6191 85.6771 87.5218 83.4338 89.3962 80.6498C89.64 80.2872 90.1319 80.1918 90.4945 80.4357C90.8571 80.6795 90.9525 81.1714 90.7087 81.534C88.6562 84.5809 85.5033 87.0256 81.5955 88.601C81.498 88.6391 81.3984 88.6582 81.3008 88.6582Z" fill="#30FF5E"/>
<path d="M112.118 150.788C111.736 150.788 111.399 150.51 111.337 150.122L111.076 148.493C110.366 144.045 107.075 140.506 102.691 139.476L87.6661 135.945C87.3777 135.877 87.1508 135.655 87.0809 135.366L85.6878 129.805C85.5818 129.379 85.1832 129.099 84.7485 129.139L75.275 130.034C74.9697 130.064 74.7046 130.244 74.5668 130.519L72.2027 135.258C72.0691 135.528 71.7956 135.697 71.4945 135.697C71.1934 135.697 70.9199 135.528 70.7863 135.26L68.4221 130.522C68.2843 130.246 68.0214 130.066 67.714 130.036L58.2404 129.141C57.8036 129.099 57.4071 129.379 57.299 129.807L55.9059 135.369C55.8339 135.655 55.607 135.88 55.3186 135.947L40.2962 139.478C35.9114 140.508 32.6207 144.047 31.9104 148.495L31.6496 150.124C31.5796 150.554 31.1746 150.849 30.7442 150.781C30.3117 150.713 30.0191 150.306 30.0869 149.876L30.3477 148.247C31.1598 143.163 34.9212 139.117 39.9336 137.938L54.4875 134.518L55.7618 129.425C56.0607 128.234 57.1697 127.453 58.3867 127.57L67.8603 128.465C68.7147 128.545 69.4526 129.052 69.8343 129.82L71.4902 133.14L73.1462 129.82C73.53 129.052 74.2679 128.545 75.1202 128.465L84.5938 127.57C85.8172 127.453 86.9197 128.236 87.2166 129.425L88.493 134.518L103.049 137.938C108.061 139.117 111.825 143.163 112.635 148.247L112.896 149.876C112.964 150.306 112.671 150.713 112.238 150.781C112.196 150.788 112.154 150.792 112.113 150.792L112.118 150.788Z" fill="#30FF5E"/>
<path d="M61.3337 140.222C61.2404 140.222 61.1471 140.205 61.056 140.171C57.5129 138.837 54.6802 135.841 54.5614 135.714C54.2625 135.396 54.2794 134.896 54.5975 134.597C54.9155 134.298 55.418 134.315 55.7149 134.633C55.7425 134.66 58.4204 137.491 61.6115 138.691C62.0207 138.846 62.2264 139.302 62.0737 139.709C61.955 140.027 61.6539 140.222 61.3337 140.222Z" fill="#30FF5E"/>
<path d="M81.6506 140.222C81.3304 140.222 81.0294 140.027 80.9106 139.709C80.7558 139.3 80.9636 138.844 81.3729 138.691C84.5639 137.491 87.2419 134.663 87.2694 134.633C87.5684 134.315 88.0688 134.298 88.3868 134.597C88.7049 134.896 88.7219 135.396 88.4229 135.714C88.3042 135.841 85.4714 138.837 81.9284 140.171C81.8372 140.205 81.7418 140.222 81.6506 140.222Z" fill="#30FF5E"/>
<path d="M71.4945 150.788C71.0577 150.788 70.7036 150.434 70.7036 149.997V139.171C70.7036 138.734 71.0577 138.38 71.4945 138.38C71.9313 138.38 72.2854 138.734 72.2854 139.171V149.997C72.2854 150.434 71.9313 150.788 71.4945 150.788Z" fill="#30FF5E"/>
<path d="M39.9102 148.718C39.2741 148.718 38.6423 148.57 38.0719 148.281L32.082 145.245C31.6919 145.048 31.5371 144.571 31.7343 144.183C31.9315 143.793 32.4086 143.638 32.7966 143.835L38.7865 146.871C39.2826 147.124 39.8572 147.2 40.4021 147.088L51.0291 144.908C51.4596 144.821 51.8751 145.097 51.9621 145.523C52.049 145.951 51.7734 146.369 51.3472 146.456L40.7202 148.635C40.453 148.691 40.1795 148.718 39.9081 148.718H39.9102Z" fill="#30FF5E"/>
<path d="M103.1 148.718C102.829 148.718 102.557 148.691 102.288 148.636L91.6609 146.456C91.2326 146.369 90.957 145.949 91.046 145.523C91.1329 145.095 91.5507 144.819 91.979 144.908L102.606 147.088C103.151 147.2 103.725 147.124 104.222 146.871L110.192 143.844C110.58 143.646 111.057 143.801 111.255 144.191C111.452 144.582 111.297 145.056 110.907 145.254L104.936 148.281C104.366 148.57 103.734 148.718 103.098 148.718H103.1Z" fill="#30FF5E"/>
<path d="M63.9351 106.321C62.6018 107.091 60.9351 106.129 60.9351 104.589L60.9351 100.115C60.9351 98.575 62.6018 97.6127 63.9351 98.3825L67.8102 100.62C69.1435 101.39 69.1435 103.314 67.8102 104.084L63.9351 106.321Z" fill="#D9D9D9"/>
<path d="M77.9334 104.084C76.6 103.314 76.6 101.39 77.9333 100.62L81.569 98.521C82.9024 97.7512 84.569 98.7134 84.569 100.253L84.569 104.451C84.569 105.991 82.9024 106.953 81.569 106.183L77.9334 104.084Z" fill="#D9D9D9"/>
</svg>
